<?xml version="1.0" encoding="UTF-8" standalone="no"?>
<!-- Created with Inkscape (http://www.inkscape.org/) -->

<svg
   width="16.800125mm"
   height="12.392mm"
   viewBox="0 0 16.800125 12.392"
   version="1.1"
   id="svg1605"
   inkscape:version="1.1.2 (b8e25be833, 2022-02-05)"
   sodipodi:docname="adobe-cloud.svg"
   xmlns:inkscape="http://www.inkscape.org/namespaces/inkscape"
   xmlns:sodipodi="http://sodipodi.sourceforge.net/DTD/sodipodi-0.dtd"
   xmlns="http://www.w3.org/2000/svg"
   xmlns:svg="http://www.w3.org/2000/svg">
  <sodipodi:namedview
     id="namedview1607"
     pagecolor="#ffffff"
     bordercolor="#666666"
     borderopacity="1.0"
     inkscape:pageshadow="2"
     inkscape:pageopacity="0.0"
     inkscape:pagecheckerboard="0"
     inkscape:document-units="mm"
     showgrid="false"
     inkscape:zoom="2.1701178"
     inkscape:cx="127.64284"
     inkscape:cy="-54.835732"
     inkscape:window-width="1920"
     inkscape:window-height="1009"
     inkscape:window-x="-3846"
     inkscape:window-y="-38"
     inkscape:window-maximized="1"
     inkscape:current-layer="layer1" />
  <defs
     id="defs1602" />
  <g
     inkscape:label="Ebene 1"
     inkscape:groupmode="layer"
     id="layer1"
     transform="translate(-70.078216,-127.94782)">
    <g
       id="g1715"
       transform="translate(0.48768473,22.189655)"
       style="fill:#ffffff">
      <path
         style="fill:#ffffff;fill-opacity:1;stroke-width:0.00672019"
         d="m 76.551696,116.94943 c -0.0084,-0.0107 -0.0081,-0.0109 0.0025,-0.003 0.0065,0.005 0.01176,0.0104 0.01176,0.0118 0,0.006 -0.0055,0.002 -0.0143,-0.009 z m -0.117384,-0.11089 -0.0128,-0.0151 0.01512,0.0128 c 0.01421,0.012 0.01818,0.0174 0.0128,0.0174 -0.0013,0 -0.0081,-0.007 -0.01512,-0.0151 z m -0.114243,-0.10752 -0.0128,-0.0151 0.01512,0.0128 c 0.01421,0.012 0.01818,0.0174 0.0128,0.0174 -0.0013,0 -0.0081,-0.007 -0.01512,-0.0151 z m -5.143895,-0.0773 -0.03673,-0.0386 0.03864,0.0367 c 0.02125,0.0202 0.03864,0.0376 0.03864,0.0386 0,0.005 -0.0064,-8.3e-4 -0.04055,-0.0367 z m 5.029652,-0.0302 -0.0128,-0.0151 0.01512,0.0128 c 0.0083,0.007 0.01512,0.0138 0.01512,0.0151 0,0.005 -0.0054,0.001 -0.01744,-0.0128 z m -5.117015,-0.0571 -0.03673,-0.0386 0.03864,0.0367 c 0.02125,0.0202 0.03864,0.0376 0.03864,0.0387 0,0.005 -0.0064,-8.4e-4 -0.04055,-0.0367 z m 5.002771,-0.0504 -0.0128,-0.0151 0.01512,0.0128 c 0.01421,0.012 0.01818,0.0174 0.0128,0.0174 -0.0013,0 -0.0081,-0.007 -0.01512,-0.0151 z m 8.296711,-8.5e-4 c 0,-0.001 0.0053,-0.007 0.01176,-0.0118 0.01066,-0.008 0.0109,-0.008 0.0025,0.003 -0.0088,0.0112 -0.0143,0.0148 -0.0143,0.009 z m -8.417674,-0.11339 -0.0128,-0.0151 0.01512,0.0128 c 0.01421,0.012 0.01818,0.0174 0.0128,0.0174 -0.0013,0 -0.0081,-0.007 -0.01512,-0.0151 z m 8.595759,-0.0588 c 0.03311,-0.0333 0.06171,-0.0605 0.06356,-0.0605 0.0018,0 -0.02373,0.0272 -0.05684,0.0605 -0.03311,0.0333 -0.06171,0.0605 -0.06356,0.0605 -0.0018,0 0.02373,-0.0272 0.05684,-0.0605 z m -8.719953,-0.0588 -0.01629,-0.0185 0.01848,0.0163 c 0.01016,0.009 0.01848,0.0173 0.01848,0.0185 0,0.005 -0.0054,9.8e-4 -0.02067,-0.0163 z m -0.134403,-0.12769 -0.01629,-0.0185 0.01848,0.0163 c 0.01017,0.009 0.01848,0.0173 0.01848,0.0185 0,0.005 -0.0054,9.9e-4 -0.02067,-0.0163 z m -0.157839,-0.1512 -0.01974,-0.0218 0.02184,0.0197 c 0.02036,0.0184 0.02493,0.0239 0.01974,0.0239 -0.0012,0 -0.01099,-0.01 -0.02184,-0.0218 z m 1.454486,-0.15793 c -0.0084,-0.0106 -0.0081,-0.0109 0.0025,-0.003 0.0065,0.005 0.01176,0.0104 0.01176,0.0118 0,0.006 -0.0055,0.002 -0.0143,-0.009 z m -4.978802,-0.0252 c -0.01632,-0.0166 -0.02817,-0.0302 -0.02632,-0.0302 0.0018,0 0.01672,0.0136 0.03304,0.0302 0.01632,0.0166 0.02817,0.0302 0.02632,0.0302 -0.0018,0 -0.01672,-0.0136 -0.03304,-0.0302 z m -0.07081,-0.0722 -0.03335,-0.0353 0.03528,0.0333 c 0.03278,0.031 0.03836,0.0372 0.03335,0.0372 -0.0011,0 -0.01694,-0.0159 -0.03528,-0.0353 z m 4.889189,-0.0554 c -0.02754,-0.0277 -0.04855,-0.0504 -0.04671,-0.0504 0.0018,0 0.02589,0.0227 0.05343,0.0504 0.02754,0.0277 0.04855,0.0504 0.04671,0.0504 -0.0018,0 -0.02589,-0.0227 -0.05343,-0.0504 z m 6.760509,-0.0672 c 0.0087,-0.009 0.0173,-0.0168 0.01914,-0.0168 0.0018,0 -0.0037,0.008 -0.01242,0.0168 -0.0087,0.009 -0.0173,0.0168 -0.01914,0.0168 -0.0018,0 0.0037,-0.008 0.01242,-0.0168 z m 0.191526,-0.19153 c 0.0067,-0.007 0.01368,-0.0134 0.01552,-0.0134 0.0018,0 -0.0021,0.006 -0.0088,0.0134 -0.0067,0.007 -0.01368,0.0134 -0.01552,0.0134 -0.0018,0 0.0021,-0.006 0.0088,-0.0134 z m -7.466244,-0.25032 -0.07381,-0.0756 0.0756,0.0738 c 0.07022,0.0686 0.07865,0.0774 0.07381,0.0774 -9.87e-4,0 -0.03501,-0.034 -0.0756,-0.0756 z m -3.47844,-0.13777 c -0.0084,-0.0107 -0.0081,-0.0109 0.0025,-0.003 0.0065,0.005 0.01176,0.0104 0.01176,0.0118 0,0.006 -0.0055,0.002 -0.0143,-0.009 z m -0.154564,-0.15456 c -0.0084,-0.0107 -0.0081,-0.0109 0.0025,-0.003 0.01119,0.009 0.01475,0.0143 0.0092,0.0143 -0.0014,0 -0.0067,-0.005 -0.01176,-0.0118 z m 4.892296,-0.0336 c -0.0084,-0.0107 -0.0081,-0.0109 0.0025,-0.003 0.0065,0.005 0.01176,0.0104 0.01176,0.0118 0,0.006 -0.0055,0.002 -0.0143,-0.009 z m 5.323247,-0.13273 c 0.02008,-0.0203 0.03801,-0.037 0.03986,-0.037 0.0018,0 -0.01307,0.0166 -0.03314,0.037 -0.02008,0.0203 -0.03801,0.037 -0.03986,0.037 -0.0018,0 0.01307,-0.0166 0.03314,-0.037 z m -7.278057,-0.23016 -0.09063,-0.0924 0.0924,0.0906 c 0.05082,0.0498 0.0924,0.0914 0.0924,0.0924 0,0.005 -0.01,-0.005 -0.09418,-0.0906 z m 7.412461,0.0899 c 0,-0.001 0.0053,-0.007 0.01176,-0.0118 0.01066,-0.008 0.0109,-0.008 0.0025,0.003 -0.0088,0.0112 -0.0143,0.0147 -0.0143,0.009 z m -6.078466,-0.34859 -0.154509,-0.15625 0.156245,0.15451 c 0.145184,0.14358 0.159274,0.15798 0.154509,0.15798 -9.54e-4,0 -0.07126,-0.0703 -0.156245,-0.15624 z m -2.012761,-0.41329 -0.07044,-0.0722 0.07224,0.0704 c 0.0671,0.0654 0.0753,0.074 0.07044,0.074 -9.9e-4,0 -0.0335,-0.0325 -0.07224,-0.0722 z m -0.490454,-0.48218 c -0.02754,-0.0277 -0.04855,-0.0504 -0.0467,-0.0504 0.0018,0 0.02589,0.0227 0.05343,0.0504 0.02754,0.0277 0.04855,0.0504 0.04671,0.0504 -0.0018,0 -0.02589,-0.0227 -0.05343,-0.0504 z m -0.181445,-0.94 c 0,-0.001 0.0053,-0.007 0.01176,-0.0118 0.01066,-0.008 0.0109,-0.008 0.0025,0.003 -0.0088,0.0112 -0.0143,0.0147 -0.0143,0.009 z m 4.885347,-0.92317 -0.03673,-0.0386 0.03864,0.0367 c 0.02125,0.0202 0.03864,0.0376 0.03864,0.0386 0,0.005 -0.0064,-8.3e-4 -0.04055,-0.0367 z m -0.268577,-0.27385 c -0.01632,-0.0166 -0.02817,-0.0302 -0.02632,-0.0302 0.0018,0 0.01672,0.0136 0.03304,0.0302 0.01632,0.0166 0.02817,0.0302 0.02632,0.0302 -0.0018,0 -0.01672,-0.0136 -0.03304,-0.0302 z m -1.831504,-0.2604 -0.03335,-0.0353 0.03528,0.0333 c 0.03278,0.031 0.03836,0.0372 0.03335,0.0372 -0.0011,0 -0.01694,-0.0159 -0.03528,-0.0353 z m 1.562466,-0.0168 -0.03673,-0.0387 0.03864,0.0367 c 0.02125,0.0202 0.03864,0.0376 0.03864,0.0386 0,0.005 -0.0064,-8.4e-4 -0.04055,-0.0367 z m -5.930336,-0.0554 c 0.0067,-0.007 0.01368,-0.0134 0.01552,-0.0134 0.0018,0 -0.0021,0.006 -0.0088,0.0134 -0.0067,0.007 -0.01368,0.0134 -0.01552,0.0134 -0.0018,0 0.0021,-0.006 0.0088,-0.0134 z m 0.104163,-0.10416 c 0.0087,-0.009 0.0173,-0.0168 0.01914,-0.0168 0.0018,0 -0.0037,0.008 -0.01242,0.0168 -0.0087,0.009 -0.0173,0.0168 -0.01914,0.0168 -0.0018,0 0.0037,-0.008 0.01242,-0.0168 z m 5.133862,-0.53257 -0.02316,-0.0252 0.0252,0.0232 c 0.01386,0.0127 0.0252,0.0241 0.0252,0.0252 0,0.005 -0.0057,2.9e-4 -0.02724,-0.0232 z m -6.094849,-0.0849 c 0,-0.001 0.0053,-0.007 0.01176,-0.0118 0.01066,-0.008 0.0109,-0.008 0.0025,0.003 -0.0088,0.0112 -0.0143,0.0148 -0.0143,0.009 z m 5.929928,-0.0731 -0.0128,-0.0151 0.01512,0.0128 c 0.01421,0.012 0.01818,0.0174 0.0128,0.0174 -0.0013,0 -0.0081,-0.007 -0.01512,-0.0151 z m -5.798884,-0.0655 c 0.0067,-0.007 0.01367,-0.0134 0.01552,-0.0134 0.0018,0 -0.0021,0.006 -0.0088,0.0134 -0.0067,0.007 -0.01368,0.0134 -0.01552,0.0134 -0.0018,0 0.0021,-0.006 0.0088,-0.0134 z m 5.681061,-0.0454 c -0.0084,-0.0107 -0.0081,-0.0109 0.0025,-0.003 0.01119,0.009 0.01475,0.0143 0.0092,0.0143 -0.0014,0 -0.0067,-0.005 -0.01176,-0.0118 z m -5.556738,-0.0714 c 0,-0.001 0.0053,-0.007 0.01176,-0.0118 0.01066,-0.008 0.0109,-0.008 0.0025,0.003 -0.0088,0.0112 -0.0143,0.0147 -0.0143,0.009 z m -1.135711,-0.57122 c 0,-10e-4 0.0053,-0.007 0.01176,-0.0118 0.01066,-0.008 0.0109,-0.008 0.0025,0.003 -0.0088,0.0112 -0.0143,0.0147 -0.0143,0.009 z m 12.041719,-0.009 c -0.0084,-0.0107 -0.0081,-0.0109 0.0025,-0.003 0.0065,0.005 0.01176,0.0104 0.01176,0.0118 0,0.006 -0.0055,0.002 -0.0143,-0.009 z m -11.890515,-0.14952 c 0.01444,-0.0148 0.02776,-0.0269 0.02961,-0.0269 0.0018,0 -0.0085,0.0121 -0.02289,0.0269 -0.01444,0.0148 -0.02776,0.0269 -0.02961,0.0269 -0.0018,0 0.0085,-0.0121 0.02289,-0.0269 z m 11.675469,-0.0655 c -0.0084,-0.0106 -0.0081,-0.0109 0.0025,-0.003 0.0065,0.005 0.01176,0.0104 0.01176,0.0118 0,0.006 -0.0055,0.002 -0.0143,-0.009 z m -11.530985,-0.0714 c 0,-0.001 0.0053,-0.007 0.01176,-0.0118 0.01066,-0.008 0.0109,-0.008 0.0025,0.003 -0.0088,0.0112 -0.0143,0.0148 -0.0143,0.009 z m 12.569473,-0.49643 -0.0128,-0.0151 0.01512,0.0128 c 0.01421,0.012 0.01818,0.0174 0.0128,0.0174 -0.0013,0 -0.0081,-0.007 -0.01512,-0.0151 z m -0.208326,-0.20833 -0.0128,-0.0151 0.01512,0.0128 c 0.01421,0.012 0.01818,0.0174 0.0128,0.0174 -0.0013,0 -0.0081,-0.007 -0.01512,-0.0151 z m 1.105252,-0.58801 c -0.0084,-0.0107 -0.0081,-0.0109 0.0025,-0.003 0.01119,0.009 0.01475,0.0143 0.0092,0.0143 -0.0014,0 -0.0067,-0.005 -0.01176,-0.0118 z M 75.904056,107.479 c 0.0067,-0.007 0.01368,-0.0134 0.01552,-0.0134 0.0018,0 -0.0021,0.006 -0.0088,0.0134 -0.0067,0.007 -0.01368,0.0134 -0.01552,0.0134 -0.0018,0 0.0021,-0.006 0.0088,-0.0134 z m 8.51698,-0.0521 c -0.0084,-0.0107 -0.0081,-0.0109 0.0025,-0.003 0.01119,0.009 0.01475,0.0143 0.0092,0.0143 -0.0014,0 -0.0067,-0.005 -0.01176,-0.0118 z"
         id="path1727" />
      <path
         style="fill:#ffffff;fill-opacity:1;stroke-width:0.00672019"
         d="m 74.474336,118.13277 c 0.0046,-0.002 0.01218,-0.002 0.0168,0 0.0046,0.002 8.4e-4,0.003 -0.0084,0.003 -0.0092,0 -0.01302,-0.002 -0.0084,-0.003 z m -0.08694,-0.007 c 0.0049,-0.002 0.01065,-0.002 0.01288,5.3e-4 0.0022,0.002 -0.0017,0.004 -0.0088,0.004 -0.0078,-3.2e-4 -0.0094,-0.002 -0.0041,-0.004 z m -0.07392,-0.007 c 0.0049,-0.002 0.01065,-0.002 0.01288,5.3e-4 0.0022,0.002 -0.0017,0.004 -0.0088,0.004 -0.0078,-3.2e-4 -0.0094,-0.002 -0.0041,-0.004 z m 5.691579,-1.12915 c 0.0083,-0.002 0.02192,-0.002 0.03024,0 0.0083,0.002 0.0015,0.003 -0.01512,0.003 -0.01663,0 -0.02344,-0.001 -0.01512,-0.003 z m 0.309129,0 c 0.0083,-0.002 0.02193,-0.002 0.03024,0 0.0083,0.002 0.0015,0.003 -0.01512,0.003 -0.01663,0 -0.02344,-0.001 -0.01512,-0.003 z m -0.456973,-0.006 c 0.0046,-0.002 0.01218,-0.002 0.0168,0 0.0046,0.002 8.4e-4,0.003 -0.0084,0.003 -0.0092,0 -0.01302,-0.002 -0.0084,-0.003 z m 0.611537,0 c 0.0046,-0.002 0.01218,-0.002 0.0168,0 0.0046,0.002 8.4e-4,0.003 -0.0084,0.003 -0.0092,0 -0.01302,-0.002 -0.0084,-0.003 z m -0.705199,-0.007 c 0.0049,-0.002 0.01065,-0.002 0.01288,5.3e-4 0.0022,0.002 -0.0017,0.004 -0.0088,0.004 -0.0078,-3.3e-4 -0.0094,-0.002 -0.0041,-0.004 z m 0.806422,0 c 0.0049,-0.002 0.01065,-0.002 0.01288,5.3e-4 0.0022,0.002 -0.0017,0.004 -0.0088,0.004 -0.0078,-3.3e-4 -0.0094,-0.002 -0.0041,-0.004 z m -5.910697,-0.007 c 0.0065,-0.002 0.01561,-0.002 0.02016,2.5e-4 0.0045,0.002 -8e-4,0.003 -0.01189,0.003 -0.01109,-1.4e-4 -0.01481,-0.002 -0.0083,-0.003 z m -0.09715,-0.007 c 0.0049,-0.002 0.01065,-0.002 0.01288,5.3e-4 0.0022,0.002 -0.0017,0.004 -0.0088,0.004 -0.0078,-3.3e-4 -0.0094,-0.002 -0.0041,-0.004 z m 5.053581,0 c 0.0049,-0.002 0.01065,-0.002 0.01288,5.3e-4 0.0022,0.002 -0.0017,0.004 -0.0088,0.004 -0.0078,-3.3e-4 -0.0094,-0.002 -0.0041,-0.004 z m -5.134223,-0.007 c 0.0049,-0.002 0.01065,-0.002 0.01288,5.4e-4 0.0022,0.002 -0.0017,0.004 -0.0088,0.004 -0.0078,-3.3e-4 -0.0094,-0.002 -0.0041,-0.004 z m 5.584135,-1.10227 c 0.0084,-0.002 0.02045,-0.002 0.02688,1.4e-4 0.0064,0.002 -4.16e-4,0.003 -0.0152,0.003 -0.01478,-8e-5 -0.02004,-10e-4 -0.01168,-0.003 z m 0.30569,1.2e-4 c 0.0065,-0.002 0.01705,-0.002 0.02352,0 0.0065,0.002 0.0012,0.003 -0.01176,0.003 -0.01294,0 -0.01823,-0.001 -0.01176,-0.003 z m -0.433033,-0.007 c 0.0049,-0.002 0.01065,-0.002 0.01288,5.3e-4 0.0022,0.002 -0.0017,0.004 -0.0088,0.004 -0.0078,-3.2e-4 -0.0094,-0.002 -0.0041,-0.004 z m 0.571216,0 c 0.0049,-0.002 0.01065,-0.002 0.01288,5.3e-4 0.0022,0.002 -0.0017,0.004 -0.0088,0.004 -0.0078,-3.2e-4 -0.0094,-0.002 -0.0041,-0.004 z m -0.658578,-0.007 c 0.0049,-0.002 0.01065,-0.002 0.01288,5.3e-4 0.0022,0.002 -0.0017,0.004 -0.0088,0.004 -0.0078,-3.2e-4 -0.0094,-0.002 -0.0041,-0.004 z m -0.07392,-0.007 c 0.0049,-0.002 0.01065,-0.002 0.01288,5.3e-4 0.0022,0.002 -0.0017,0.004 -0.0088,0.004 -0.0078,-3.2e-4 -0.0094,-0.002 -0.0041,-0.004 z m -5.077394,-0.0202 c 0.0065,-0.002 0.01561,-0.002 0.02016,2.4e-4 0.0045,0.002 -8e-4,0.003 -0.01189,0.003 -0.01109,-1.3e-4 -0.01481,-0.002 -0.0083,-0.003 z m -0.103871,-0.007 c 0.0049,-0.002 0.01065,-0.002 0.01288,5.3e-4 0.0022,0.002 -0.0017,0.004 -0.0088,0.004 -0.0078,-3.2e-4 -0.0094,-0.002 -0.0041,-0.004 z m -0.08064,-0.007 c 0.0049,-0.002 0.01065,-0.002 0.01288,5.3e-4 0.0022,0.002 -0.0017,0.004 -0.0088,0.004 -0.0078,-3.2e-4 -0.0094,-0.002 -0.0041,-0.004 z m -3.707753,-2.5866 c 3.22e-4,-0.008 0.0019,-0.009 0.0041,-0.004 0.0019,0.005 0.0017,0.0106 -5.31e-4,0.0129 -0.0022,0.002 -0.0038,-0.002 -0.0035,-0.009 z m -0.0062,-0.0969 c 0,-0.009 0.0015,-0.013 0.0034,-0.008 0.0019,0.005 0.0019,0.0122 0,0.0168 -0.0019,0.005 -0.0034,8.4e-4 -0.0034,-0.008 z m 1.108831,-0.047 c 0,-0.009 0.0015,-0.013 0.0034,-0.008 0.0019,0.005 0.0019,0.0122 0,0.0168 -0.0019,0.005 -0.0034,8.4e-4 -0.0034,-0.008 z m -1.113961,-0.18481 c 1.4e-5,-0.0517 0.0011,-0.072 0.0023,-0.0451 0.0013,0.027 0.0013,0.0693 -2e-5,0.0941 -0.0013,0.0248 -0.0023,0.003 -0.0023,-0.049 z m 1.108769,-0.0168 c 0,-0.0462 0.0011,-0.0651 0.0024,-0.042 0.0013,0.0231 0.0013,0.0609 0,0.084 -0.0013,0.0231 -0.0024,0.004 -0.0024,-0.042 z m 2.229044,-0.0375 c 3.22e-4,-0.008 0.0019,-0.009 0.0041,-0.004 0.0019,0.005 0.0017,0.0106 -5.31e-4,0.0129 -0.0022,0.002 -0.0038,-0.002 -0.0035,-0.009 z m 0,-0.0806 c 3.22e-4,-0.008 0.0019,-0.009 0.0041,-0.004 0.0019,0.005 0.0017,0.0106 -5.31e-4,0.0129 -0.0022,0.002 -0.0038,-0.002 -0.0035,-0.009 z m -2.224383,-0.0806 c 3.23e-4,-0.008 0.0019,-0.009 0.0041,-0.004 0.0019,0.005 0.0017,0.0107 -5.3e-4,0.0129 -0.0022,0.002 -0.0038,-0.002 -0.0035,-0.009 z m -1.1083,-0.023 c 0,-0.009 0.0015,-0.013 0.0034,-0.008 0.0019,0.005 0.0019,0.0122 0,0.0168 -0.0019,0.005 -0.0034,8.4e-4 -0.0034,-0.008 z m 8.135406,-0.0246 c 0.0046,-0.002 0.01218,-0.002 0.0168,0 0.0046,0.002 8.4e-4,0.003 -0.0084,0.003 -0.0092,0 -0.01302,-0.002 -0.0084,-0.003 z m -9.33213,-0.12043 c 3.22e-4,-0.008 0.0019,-0.009 0.0041,-0.004 0.0019,0.005 0.0017,0.0106 -5.31e-4,0.0129 -0.0022,0.002 -0.0038,-0.002 -0.0035,-0.009 z m 15.584116,-0.22849 c 3.22e-4,-0.008 0.0019,-0.009 0.0041,-0.004 0.0019,0.005 0.0017,0.0107 -5.31e-4,0.0129 -0.0022,0.002 -0.0038,-0.002 -0.0035,-0.009 z m -1.135712,-0.0269 c 3.22e-4,-0.008 0.0019,-0.009 0.0041,-0.004 0.0019,0.005 0.0017,0.0106 -5.31e-4,0.0129 -0.0022,0.002 -0.0038,-0.002 -0.0035,-0.009 z m 0.0073,-0.0834 c 0,-0.009 0.0015,-0.013 0.0034,-0.008 0.0019,0.005 0.0019,0.0122 0,0.0168 -0.0019,0.005 -0.0034,8.4e-4 -0.0034,-0.008 z m 1.136345,-0.0235 c 7.4e-5,-0.0148 0.0015,-0.02 0.0031,-0.0117 0.0016,0.008 0.0015,0.0204 -1.35e-4,0.0269 -0.0017,0.006 -0.003,-4.2e-4 -0.0029,-0.0152 z m -1.128855,-0.11088 c 0,-0.0166 0.0013,-0.0234 0.0029,-0.0151 0.0016,0.008 0.0016,0.0219 0,0.0302 -0.0016,0.008 -0.0029,0.002 -0.0029,-0.0151 z m -1.35e-4,-0.25873 c 7.4e-5,-0.0148 0.0015,-0.02 0.0031,-0.0117 0.0016,0.008 0.0015,0.0204 -1.34e-4,0.0269 -0.0017,0.006 -0.003,-4.2e-4 -0.0029,-0.0152 z m 1.128856,0.003 c 0,-0.0129 0.0014,-0.0182 0.0031,-0.0118 0.0017,0.006 0.0017,0.0171 0,0.0235 -0.0017,0.006 -0.0031,0.001 -0.0031,-0.0118 z m -1.13621,-0.1344 c 0,-0.009 0.0015,-0.013 0.0034,-0.008 0.0019,0.005 0.0019,0.0122 0,0.0168 -0.0019,0.005 -0.0034,8.4e-4 -0.0034,-0.008 z m 1.128461,0.003 c 3.22e-4,-0.008 0.0019,-0.009 0.0041,-0.004 0.0019,0.005 0.0017,0.0106 -5.31e-4,0.0129 -0.0022,0.002 -0.0038,-0.002 -0.0035,-0.009 z m -0.0067,-0.0941 c 3.22e-4,-0.008 0.0019,-0.009 0.0041,-0.004 0.0019,0.005 0.0017,0.0106 -5.31e-4,0.0129 -0.0022,0.002 -0.0038,-0.002 -0.0035,-0.009 z m 1.189473,-0.0403 c 3.23e-4,-0.008 0.0019,-0.009 0.0041,-0.004 0.0019,0.005 0.0017,0.0106 -5.31e-4,0.0129 -0.0022,0.002 -0.0038,-0.002 -0.0035,-0.009 z M 75.093082,109.9517 c 0.0049,-0.002 0.01065,-0.002 0.01288,5.3e-4 0.0022,0.002 -0.0017,0.004 -0.0088,0.004 -0.0078,-3.3e-4 -0.0094,-0.002 -0.0041,-0.004 z m -0.390191,-0.007 c 0.0046,-0.002 0.01218,-0.002 0.0168,0 0.0046,0.002 8.41e-4,0.003 -0.0084,0.003 -0.0092,0 -0.01302,-0.002 -0.0084,-0.003 z m 0.285736,-2.1e-4 c 0.0065,-0.002 0.01561,-0.002 0.02016,2.5e-4 0.0045,0.002 -7.99e-4,0.003 -0.01189,0.003 -0.01109,-1.4e-4 -0.01481,-0.002 -0.0083,-0.003 z m 0.2859,-1.11548 c 0.0049,-0.002 0.01065,-0.002 0.01288,5.3e-4 0.0022,0.002 -0.0017,0.004 -0.0088,0.004 -0.0078,-3.3e-4 -0.0094,-0.002 -0.0041,-0.004 z m -0.618677,-0.007 c 0.0046,-0.002 0.01218,-0.002 0.0168,0 0.0046,0.002 8.4e-4,0.003 -0.0084,0.003 -0.0092,0 -0.01302,-0.002 -0.0084,-0.003 z m 0.538035,-1.4e-4 c 0.0049,-0.002 0.01065,-0.002 0.01288,5.3e-4 0.0022,0.002 -0.0017,0.004 -0.0088,0.004 -0.0078,-3.3e-4 -0.0094,-0.002 -0.0041,-0.004 z m -0.410273,-0.007 c 0.0084,-0.002 0.02046,-0.002 0.02688,1.4e-4 0.0064,0.002 -4.14e-4,0.003 -0.0152,0.003 -0.01479,-7e-5 -0.02004,-0.001 -0.01168,-0.003 z m 0.272089,1.2e-4 c 0.0065,-0.002 0.01705,-0.002 0.02352,0 0.0065,0.002 0.0012,0.003 -0.01176,0.003 -0.01294,0 -0.01823,-10e-4 -0.01176,-0.003 z m 5.500894,-0.70557 c 0.0049,-0.002 0.01065,-0.002 0.01288,5.3e-4 0.0022,0.002 -0.0017,0.004 -0.0088,0.004 -0.0078,-3.3e-4 -0.0094,-0.002 -0.0041,-0.004 z m -0.732501,-0.007 c 0.0049,-0.002 0.01065,-0.002 0.01288,5.3e-4 0.0022,0.002 -0.0017,0.004 -0.0088,0.004 -0.0078,-3.3e-4 -0.0094,-0.002 -0.0041,-0.004 z m 0.08694,-0.007 c 0.0046,-0.002 0.01218,-0.002 0.0168,0 0.0046,0.002 8.4e-4,0.003 -0.0084,0.003 -0.0092,0 -0.01302,-0.002 -0.0084,-0.003 z m 0.477133,0 c 0.0046,-0.002 0.01218,-0.002 0.0168,0 0.0046,0.002 8.4e-4,0.003 -0.0084,0.003 -0.0092,0 -0.01302,-0.002 -0.0084,-0.003 z m -0.288968,-0.007 c 0.03049,-0.001 0.08039,-0.001 0.110883,0 0.03049,0.001 0.0055,0.002 -0.05544,0.002 -0.06099,0 -0.08593,-10e-4 -0.05544,-0.002 z m -5.71174,-0.45657 c 0.0049,-0.002 0.01065,-0.002 0.01288,5.3e-4 0.0022,0.002 -0.0017,0.004 -0.0088,0.004 -0.0078,-3.2e-4 -0.0094,-0.002 -0.0041,-0.004 z m 0.947547,0 c 0.0049,-0.002 0.01065,-0.002 0.01288,5.3e-4 0.0022,0.002 -0.0017,0.004 -0.0088,0.004 -0.0078,-3.2e-4 -0.0094,-0.002 -0.0041,-0.004 z m -0.860184,-0.007 c 0.0049,-0.002 0.01065,-0.002 0.01288,5.3e-4 0.0022,0.002 -0.0017,0.004 -0.0088,0.004 -0.0078,-3.2e-4 -0.0094,-0.002 -0.0041,-0.004 z m 0.772821,0 c 0.0049,-0.002 0.01065,-0.002 0.01288,5.3e-4 0.0022,0.002 -0.0017,0.004 -0.0088,0.004 -0.0078,-3.2e-4 -0.0094,-0.002 -0.0041,-0.004 z m -0.672439,-0.007 c 0.0046,-0.002 0.01218,-0.002 0.0168,0 0.0046,0.002 8.4e-4,0.003 -0.0084,0.003 -0.0092,0 -0.01302,-0.002 -0.0084,-0.003 z m 0.557776,0 c 0.0046,-0.002 0.01218,-0.002 0.0168,0 0.0046,0.002 8.4e-4,0.003 -0.0084,0.003 -0.0092,0 -0.01302,-0.002 -0.0084,-0.003 z m -0.339369,-0.007 c 0.03604,-0.001 0.09501,-0.001 0.131043,0 0.03604,0.001 0.0066,0.002 -0.06552,0.002 -0.07207,0 -0.101558,-9.9e-4 -0.06552,-0.002 z m 5.910825,-0.638 c 0.0049,-0.002 0.01065,-0.002 0.01288,5.3e-4 0.0022,0.002 -0.0017,0.004 -0.0088,0.004 -0.0078,-3.2e-4 -0.0094,-0.002 -0.0041,-0.004 z m -0.994588,-0.007 c 0.0049,-0.002 0.01065,-0.002 0.01288,5.3e-4 0.0022,0.002 -0.0017,0.004 -0.0088,0.004 -0.0078,-3.2e-4 -0.0094,-0.002 -0.0041,-0.004 z m 0.920666,0 c 0.0049,-0.002 0.01065,-0.002 0.01288,5.3e-4 0.0022,0.002 -0.0017,0.004 -0.0088,0.004 -0.0078,-3.2e-4 -0.0094,-0.002 -0.0041,-0.004 z m -0.819863,-0.007 c 0.0049,-0.002 0.01065,-0.002 0.01288,5.3e-4 0.0022,0.002 -0.0017,0.004 -0.0088,0.004 -0.0078,-3.2e-4 -0.0094,-0.002 -0.0041,-0.004 z m 0.71864,1.4e-4 c 0.0046,-0.002 0.01218,-0.002 0.0168,0 0.0046,0.002 8.41e-4,0.003 -0.0084,0.003 -0.0092,0 -0.01302,-0.002 -0.0084,-0.003 z m -0.591298,-0.007 c 0.0084,-0.002 0.02046,-0.002 0.02688,1.4e-4 0.0064,0.002 -4.17e-4,0.003 -0.0152,0.003 -0.01478,-8e-5 -0.02004,-10e-4 -0.01168,-0.003 z m 0.460254,1.2e-4 c 0.0065,-0.002 0.01705,-0.002 0.02352,0 0.0065,0.002 0.0012,0.003 -0.01176,0.003 -0.01294,0 -0.01823,-0.001 -0.01176,-0.003 z m -0.836243,-1.16255 c 0.0049,-0.002 0.01065,-0.002 0.01288,5.3e-4 0.0022,0.002 -0.0017,0.004 -0.0088,0.004 -0.0078,-3.2e-4 -0.0094,-0.002 -0.0041,-0.004 z m 1.182753,0 c 0.0049,-0.002 0.01065,-0.002 0.01288,5.3e-4 0.0022,0.002 -0.0017,0.004 -0.0088,0.004 -0.0078,-3.2e-4 -0.0094,-0.002 -0.0041,-0.004 z"
         id="path1725" />
      <path
         style="fill:#ffffff;fill-opacity:1;stroke-width:0.00672019"
         d="m 76.521675,116.91918 -0.0128,-0.0151 0.01512,0.0128 c 0.01421,0.012 0.01818,0.0174 0.0128,0.0174 -0.0013,0 -0.0081,-0.007 -0.01512,-0.0151 z m -0.114244,-0.10752 -0.0128,-0.0151 0.01512,0.0128 c 0.01421,0.012 0.01818,0.0174 0.0128,0.0174 -0.0013,0 -0.0081,-0.007 -0.01512,-0.0151 z m -0.117822,-0.11088 c -0.0084,-0.0107 -0.0081,-0.0109 0.0025,-0.003 0.0112,0.009 0.01475,0.0143 0.0092,0.0143 -0.0014,0 -0.0067,-0.005 -0.01176,-0.0118 z m -0.114243,-0.10752 c -0.0084,-0.0107 -0.0081,-0.0109 0.0025,-0.003 0.01119,0.009 0.01475,0.0143 0.0092,0.0143 -0.0014,0 -0.0067,-0.005 -0.01176,-0.0118 z m -0.117385,-0.11089 -0.0128,-0.0151 0.01512,0.0128 c 0.01421,0.012 0.01818,0.0174 0.0128,0.0174 -0.0013,0 -0.0081,-0.007 -0.01512,-0.0151 z m 8.357193,0.006 c 0,-0.001 0.0053,-0.007 0.01176,-0.0118 0.01066,-0.008 0.0109,-0.008 0.0025,0.003 -0.0088,0.0112 -0.0143,0.0148 -0.0143,0.009 z m -8.478156,-0.1201 -0.0128,-0.0151 0.01512,0.0128 c 0.01421,0.012 0.01818,0.0174 0.0128,0.0174 -0.0013,0 -0.0081,-0.007 -0.01512,-0.0151 z m -0.124194,-0.1176 -0.01629,-0.0185 0.01848,0.0163 c 0.01016,0.009 0.01848,0.0173 0.01848,0.0185 0,0.005 -0.0054,9.8e-4 -0.02067,-0.0163 z m 8.891318,-0.0513 c 0,-0.001 0.0053,-0.007 0.01176,-0.0118 0.01066,-0.008 0.0109,-0.008 0.0025,0.003 -0.0088,0.0112 -0.0143,0.0148 -0.0143,0.009 z m -9.032442,-0.0832 -0.01629,-0.0185 0.01848,0.0163 c 0.01016,0.009 0.01848,0.0173 0.01848,0.0185 0,0.005 -0.0054,9.8e-4 -0.02067,-0.0163 z m -0.167857,-0.16128 -0.02316,-0.0252 0.0252,0.0232 c 0.02346,0.0216 0.02829,0.0272 0.02316,0.0272 -0.0011,0 -0.01246,-0.0113 -0.0252,-0.0252 z m -3.424213,-0.084 -0.0128,-0.0151 0.01512,0.0128 c 0.0083,0.007 0.01512,0.0138 0.01512,0.0151 0,0.005 -0.0054,0.001 -0.01744,-0.0128 z m 4.845472,-0.1008 -0.01974,-0.0218 0.02184,0.0197 c 0.01201,0.0109 0.02184,0.0207 0.02184,0.0218 0,0.005 -0.0055,6.2e-4 -0.02394,-0.0197 z m -5.020197,-0.0739 -0.0128,-0.0151 0.01512,0.0128 c 0.01421,0.012 0.01818,0.0174 0.0128,0.0174 -0.0013,0 -0.0081,-0.007 -0.01512,-0.0151 z m 11.673605,-0.0386 c 0.0067,-0.007 0.01368,-0.0134 0.01552,-0.0134 0.0018,0 -0.0021,0.006 -0.0088,0.0134 -0.0067,0.007 -0.01368,0.0134 -0.01552,0.0134 -0.0018,0 0.0021,-0.006 0.0088,-0.0134 z m 0.245287,-0.24447 c 0,-0.001 0.0053,-0.007 0.01176,-0.0118 0.01066,-0.008 0.0109,-0.008 0.0025,0.003 -0.0088,0.0112 -0.0143,0.0148 -0.0143,0.009 z m -7.341932,-0.0798 -0.06708,-0.0689 0.06888,0.0671 c 0.06398,0.0623 0.07194,0.0707 0.06708,0.0707 -9.93e-4,0 -0.03199,-0.031 -0.06888,-0.0689 z m -3.662798,-0.32257 -0.01974,-0.0218 0.02184,0.0197 c 0.01201,0.0109 0.02184,0.0207 0.02184,0.0218 0,0.005 -0.0055,6.2e-4 -0.02394,-0.0197 z m -0.08064,-0.0806 -0.01974,-0.0218 0.02184,0.0197 c 0.01201,0.0109 0.02184,0.0207 0.02184,0.0218 0,0.005 -0.0055,6.1e-4 -0.02394,-0.0197 z m 10.050464,-0.0815 c 0,-0.001 0.0053,-0.007 0.01176,-0.0118 0.01066,-0.008 0.0109,-0.008 0.0025,0.003 -0.0088,0.0112 -0.0143,0.0147 -0.0143,0.009 z m -5.225584,-0.0193 -0.0128,-0.0151 0.01512,0.0128 c 0.0083,0.007 0.01512,0.0138 0.01512,0.0151 0,0.005 -0.0054,10e-4 -0.01744,-0.0128 z m -1.736624,-0.14449 -0.09063,-0.0924 0.0924,0.0906 c 0.05082,0.0498 0.0924,0.0914 0.0924,0.0924 0,0.005 -0.01,-0.005 -0.09418,-0.0906 z m 1.414614,-0.17808 -0.107444,-0.10921 0.109203,0.10745 c 0.06006,0.0591 0.109203,0.10823 0.109203,0.1092 0,0.005 -0.01114,-0.006 -0.110962,-0.10744 z m 5.789521,0.0999 c 0,-10e-4 0.0053,-0.007 0.01176,-0.0118 0.01066,-0.008 0.0109,-0.008 0.0025,0.003 -0.0088,0.0112 -0.0143,0.0148 -0.0143,0.009 z m -7.919742,-0.62916 c -0.04424,-0.0443 -0.07892,-0.0806 -0.07707,-0.0806 0.0018,0 0.03955,0.0363 0.08379,0.0806 0.04424,0.0444 0.07892,0.0806 0.07707,0.0806 -0.0018,0 -0.03956,-0.0363 -0.08379,-0.0806 z m -0.531052,-0.52585 -0.0536,-0.0554 0.05544,0.0536 c 0.05149,0.0498 0.05851,0.0573 0.0536,0.0573 -0.001,0 -0.02596,-0.0249 -0.05544,-0.0554 z m 0.69228,-0.92067 -0.147787,-0.14952 0.149524,0.14778 c 0.08224,0.0813 0.149524,0.14857 0.149524,0.14953 0,0.005 -0.01394,-0.009 -0.151261,-0.14779 z m 3.252628,-0.126 c -0.04424,-0.0444 -0.07892,-0.0806 -0.07707,-0.0806 0.0018,0 0.03955,0.0363 0.08379,0.0806 0.04424,0.0444 0.07892,0.0806 0.07707,0.0806 -0.0018,0 -0.03955,-0.0363 -0.08379,-0.0806 z m -0.840048,-0.84171 -0.349425,-0.35113 0.351129,0.34943 c 0.193122,0.19218 0.35113,0.35019 0.35113,0.35113 0,0.005 -0.02804,-0.023 -0.352834,-0.34943 z m 1.575714,0.003 -0.04349,-0.0454 0.04536,0.0435 c 0.02495,0.0239 0.04536,0.0443 0.04536,0.0454 0,0.005 -0.0068,-0.001 -0.04724,-0.0435 z m -0.288774,-0.294 c -0.01632,-0.0166 -0.02817,-0.0302 -0.02632,-0.0302 0.0018,0 0.01671,0.0136 0.03304,0.0302 0.01632,0.0166 0.02817,0.0302 0.02632,0.0302 -0.0018,0 -0.01672,-0.0136 -0.03304,-0.0302 z m -0.258979,-0.26713 -0.03335,-0.0353 0.03528,0.0333 c 0.0194,0.0183 0.03528,0.0342 0.03528,0.0353 0,0.005 -0.0062,-5.7e-4 -0.03721,-0.0333 z m -1.710036,-0.12937 c -0.01632,-0.0166 -0.02817,-0.0302 -0.02632,-0.0302 0.0018,0 0.01672,0.0136 0.03304,0.0302 0.01632,0.0166 0.02817,0.0302 0.02632,0.0302 -0.0018,0 -0.01671,-0.0136 -0.03304,-0.0302 z m -4.247439,-0.0521 c 0.02785,-0.0297 0.03388,-0.035 0.03388,-0.03 0,0.001 -0.01436,0.0155 -0.03192,0.0319 l -0.03192,0.03 z m 4.085297,-0.11088 c -0.0084,-0.0107 -0.0081,-0.0109 0.0025,-0.003 0.0065,0.005 0.01176,0.0104 0.01176,0.0118 0,0.006 -0.0055,0.002 -0.0143,-0.009 z m 1.422099,-0.16465 -0.107444,-0.1092 0.109203,0.10745 c 0.06006,0.0591 0.109203,0.10823 0.109203,0.1092 0,0.005 -0.01114,-0.006 -0.110962,-0.10745 z m -0.369954,-0.36289 -0.01974,-0.0218 0.02184,0.0197 c 0.02036,0.0184 0.02493,0.024 0.01974,0.024 -0.0012,0 -0.01098,-0.01 -0.02184,-0.0219 z m -5.953664,-0.13272 c 0.01444,-0.0148 0.02776,-0.0269 0.02961,-0.0269 0.0018,0 -0.0085,0.0121 -0.02289,0.0269 -0.01444,0.0148 -0.02776,0.0269 -0.02961,0.0269 -0.0018,0 0.0085,-0.0121 0.02289,-0.0269 z m 5.805604,-0.008 -0.0128,-0.0151 0.01512,0.0128 c 0.01421,0.012 0.01818,0.0174 0.0128,0.0174 -0.0013,0 -0.0081,-0.007 -0.01512,-0.0151 z m -5.718242,-0.079 c 0.01444,-0.0148 0.02776,-0.0269 0.02961,-0.0269 0.0018,0 -0.0085,0.0121 -0.02289,0.0269 -0.01444,0.0148 -0.02776,0.0269 -0.02961,0.0269 -0.0018,0 0.0085,-0.0121 0.02289,-0.0269 z m 5.60714,-0.0252 c -0.0084,-0.0107 -0.0081,-0.0109 0.0025,-0.003 0.0065,0.005 0.01176,0.0104 0.01176,0.0118 0,0.006 -0.0055,0.002 -0.0143,-0.009 z m -6.638689,-0.64264 c 0,-10e-4 0.0053,-0.007 0.01176,-0.0118 0.01066,-0.008 0.0109,-0.008 0.0025,0.003 -0.0088,0.0112 -0.0143,0.0148 -0.0143,0.009 z m 11.984817,-0.0126 -0.0128,-0.0151 0.01512,0.0128 c 0.01421,0.012 0.01818,0.0174 0.0128,0.0174 -0.0013,0 -0.0081,-0.007 -0.01512,-0.0151 z m -0.154564,-0.15457 -0.0128,-0.0151 0.01512,0.0128 c 0.01421,0.012 0.01818,0.0174 0.0128,0.0174 -0.0013,0 -0.0081,-0.007 -0.01512,-0.0151 z m -11.578246,-0.0857 c 0.0067,-0.007 0.01368,-0.0134 0.01552,-0.0134 0.0018,0 -0.0021,0.006 -0.0088,0.0134 -0.0067,0.007 -0.01368,0.0134 -0.01552,0.0134 -0.0018,0 0.0021,-0.006 0.0088,-0.0134 z m 12.616296,-0.48217 c -0.0084,-0.0107 -0.0081,-0.0109 0.0025,-0.003 0.01119,0.009 0.01476,0.0143 0.0092,0.0143 -0.0014,0 -0.0067,-0.005 -0.01176,-0.0118 z m -0.271949,-0.27217 -0.0128,-0.0151 0.01512,0.0128 c 0.01421,0.012 0.01818,0.0174 0.0128,0.0174 -0.0013,0 -0.0081,-0.007 -0.01512,-0.0151 z m 1.192615,-0.49393 c -0.0084,-0.0107 -0.0081,-0.0109 0.0025,-0.003 0.01119,0.009 0.01475,0.0143 0.0092,0.0143 -0.0014,0 -0.0067,-0.005 -0.01176,-0.0118 z m -0.08378,-0.0907 -0.0128,-0.0151 0.01512,0.0128 c 0.01421,0.012 0.01818,0.0174 0.0128,0.0174 -0.0013,0 -0.0081,-0.007 -0.01512,-0.0151 z m -8.950652,-0.0722 c 0.0067,-0.007 0.01368,-0.0134 0.01552,-0.0134 0.0018,0 -0.0021,0.006 -0.0088,0.0134 -0.0067,0.007 -0.01367,0.0134 -0.01552,0.0134 -0.0018,0 0.0021,-0.006 0.0088,-0.0134 z m 0.103882,-0.10248 c 0.01648,-0.0176 0.03084,-0.0319 0.03192,-0.0319 0.005,0 -2.89e-4,0.006 -0.02996,0.0339 l -0.03192,0.03 z m 8.598123,-0.0739 -0.0128,-0.0151 0.01512,0.0128 c 0.01421,0.012 0.01818,0.0174 0.0128,0.0174 -0.0013,0 -0.0081,-0.007 -0.01512,-0.0151 z m -8.476878,-0.0412 c 0,-10e-4 0.0053,-0.007 0.01176,-0.0118 0.01066,-0.008 0.0109,-0.008 0.0025,0.003 -0.0088,0.0112 -0.0143,0.0147 -0.0143,0.009 z"
         id="path1723" />
      <path
         style="fill:#ffffff;fill-opacity:1;stroke-width:0.00672019"
         d="m 74.407554,118.12591 c 0.0049,-0.002 0.01065,-0.002 0.01288,5.3e-4 0.0022,0.002 -0.0017,0.004 -0.0088,0.004 -0.0078,-3.2e-4 -0.0094,-0.002 -0.0041,-0.004 z m 5.553815,-1.13576 c 0.0065,-0.002 0.01705,-0.002 0.02352,0 0.0065,0.002 0.0012,0.003 -0.01176,0.003 -0.01294,0 -0.01823,-0.001 -0.01176,-0.003 z m 0.403211,0 c 0.0065,-0.002 0.01705,-0.002 0.02352,0 0.0065,0.002 0.0012,0.003 -0.01176,0.003 -0.01294,0 -0.01823,-0.001 -0.01176,-0.003 z m -0.534255,-0.007 c 0.0046,-0.002 0.01218,-0.002 0.0168,0 0.0046,0.002 8.4e-4,0.003 -0.0084,0.003 -0.0092,0 -0.01302,-0.002 -0.0084,-0.003 z m 0.672439,-1.5e-4 c 0.0049,-0.002 0.01065,-0.002 0.01288,5.4e-4 0.0022,0.002 -0.0017,0.004 -0.0088,0.004 -0.0078,-3.3e-4 -0.0094,-0.002 -0.0041,-0.004 z m -5.289208,-0.007 c 0.241171,-9.8e-4 0.635814,-9.8e-4 0.876985,0 0.241171,9.8e-4 0.04385,0.002 -0.438492,0.002 -0.482342,0 -0.679663,-7.9e-4 -0.438493,-0.002 z m 4.529827,4.5e-4 c 0.0049,-0.002 0.01065,-0.002 0.01288,5.3e-4 0.0022,0.002 -0.0017,0.004 -0.0088,0.004 -0.0078,-3.2e-4 -0.0094,-0.002 -0.0041,-0.004 z m 0.846744,0 c 0.0049,-0.002 0.01065,-0.002 0.01288,5.3e-4 0.0022,0.002 -0.0017,0.004 -0.0088,0.004 -0.0078,-3.2e-4 -0.0094,-0.002 -0.0041,-0.004 z m -5.961227,-0.007 c 0.0046,-0.002 0.01218,-0.002 0.0168,0 0.0046,0.002 8.4e-4,0.003 -0.0084,0.003 -0.0092,0 -0.01302,-0.002 -0.0084,-0.003 z m 1.865894,-0.0779 -0.0128,-0.0151 0.01512,0.0128 c 0.01421,0.012 0.01818,0.0174 0.0128,0.0174 -0.0013,0 -0.0081,-0.007 -0.01512,-0.0151 z m -5.157963,-0.0907 c -0.0084,-0.0107 -0.0081,-0.0109 0.0025,-0.003 0.01119,0.009 0.01475,0.0143 0.0092,0.0143 -0.0014,0 -0.0067,-0.005 -0.01176,-0.0118 z m 5.04372,-0.0168 -0.0128,-0.0151 0.01512,0.0128 c 0.0083,0.007 0.01512,0.0139 0.01512,0.0151 0,0.005 -0.0054,10e-4 -0.01744,-0.0128 z m -5.120784,-0.0538 -0.0128,-0.0151 0.01512,0.0128 c 0.01421,0.012 0.01818,0.0174 0.0128,0.0174 -0.0013,0 -0.0081,-0.007 -0.01512,-0.0151 z m 5.00654,-0.0538 -0.0128,-0.0151 0.01512,0.0128 c 0.01421,0.012 0.01818,0.0174 0.0128,0.0174 -0.0013,0 -0.0081,-0.007 -0.01512,-0.0151 z m -0.117473,-0.11089 -0.01629,-0.0185 0.01848,0.0163 c 0.01016,0.009 0.01848,0.0173 0.01848,0.0185 0,0.005 -0.0054,9.8e-4 -0.02067,-0.0163 z m 8.199138,-0.0177 c 0,-0.001 0.0053,-0.007 0.01176,-0.0118 0.01066,-0.008 0.0109,-0.008 0.0025,0.003 -0.0088,0.0112 -0.0143,0.0148 -0.0143,0.009 z m -13.336852,-0.0663 -0.0128,-0.0151 0.01512,0.0128 c 0.0083,0.007 0.01512,0.0138 0.01512,0.0151 0,0.005 -0.0054,0.001 -0.01744,-0.0128 z m 5.019981,-0.0269 -0.0128,-0.0151 0.01512,0.0128 c 0.01421,0.012 0.01818,0.0174 0.0128,0.0174 -0.0013,0 -0.0081,-0.007 -0.01512,-0.0151 z m 8.414314,0.002 c 0.0067,-0.007 0.01368,-0.0134 0.01552,-0.0134 0.0018,0 -0.0021,0.006 -0.0088,0.0134 -0.0067,0.007 -0.01368,0.0134 -0.01552,0.0134 -0.0018,0 0.0021,-0.006 0.0088,-0.0134 z m -13.505075,-0.0521 c -0.0084,-0.0107 -0.0081,-0.0109 0.0025,-0.003 0.01119,0.009 0.01475,0.0143 0.0092,0.0143 -0.0014,0 -0.0067,-0.005 -0.01176,-0.0118 z m 4.969797,-0.0638 -0.0128,-0.0151 0.01512,0.0128 c 0.01421,0.012 0.01818,0.0174 0.0128,0.0174 -0.0013,0 -0.0081,-0.007 -0.01512,-0.0151 z m -0.130914,-0.12433 -0.01629,-0.0185 0.01848,0.0163 c 0.01016,0.009 0.01848,0.0173 0.01848,0.0185 0,0.005 -0.0054,9.8e-4 -0.02067,-0.0163 z m 8.904758,0.002 c 0.0087,-0.009 0.01729,-0.0168 0.01914,-0.0168 0.0018,0 -0.0037,0.008 -0.01242,0.0168 -0.0087,0.009 -0.0173,0.0168 -0.01914,0.0168 -0.0018,0 0.0037,-0.008 0.01242,-0.0168 z m -9.049156,-0.13944 -0.01974,-0.0218 0.02184,0.0197 c 0.02036,0.0184 0.02493,0.0239 0.01974,0.0239 -0.0012,0 -0.01099,-0.01 -0.02184,-0.0218 z m -0.17145,-0.16464 -0.01629,-0.0185 0.01848,0.0163 c 0.01017,0.009 0.01848,0.0173 0.01848,0.0185 0,0.005 -0.0054,9.8e-4 -0.02067,-0.0163 z m -3.360443,-0.0202 c -0.0084,-0.0107 -0.0081,-0.0109 0.0025,-0.003 0.0112,0.009 0.01475,0.0143 0.0092,0.0143 -0.0014,0 -0.0067,-0.005 -0.01176,-0.0118 z m 4.939338,-0.0134 c -0.0084,-0.0107 -0.0081,-0.0109 0.0025,-0.003 0.01119,0.009 0.01475,0.0143 0.0092,0.0143 -0.0014,0 -0.0067,-0.005 -0.01176,-0.0118 z m 3.077144,-0.0267 c 0.01208,-0.001 0.03022,-0.001 0.04032,7e-5 0.0101,0.002 2.15e-4,0.003 -0.02196,0.003 -0.02218,-7e-5 -0.03044,-10e-4 -0.01836,-0.003 z m 0.181445,0 c 0.01208,-0.001 0.03022,-0.001 0.04032,7e-5 0.0101,0.002 2.15e-4,0.003 -0.02196,0.003 -0.02218,-7e-5 -0.03044,-10e-4 -0.01836,-0.003 z m -0.33571,-0.006 c 0.0049,-0.002 0.01065,-0.002 0.01288,5.3e-4 0.0022,0.002 -0.0017,0.004 -0.0088,0.004 -0.0078,-3.2e-4 -0.0094,-0.002 -0.0041,-0.004 z m 0.517455,0 c 0.0049,-0.002 0.01065,-0.002 0.01288,5.3e-4 0.0022,0.002 -0.0017,0.004 -0.0088,0.004 -0.0078,-3.2e-4 -0.0094,-0.002 -0.0041,-0.004 z m -0.611537,-0.007 c 0.0049,-0.002 0.01065,-0.002 0.01288,5.3e-4 0.0022,0.002 -0.0017,0.004 -0.0088,0.004 -0.0078,-3.2e-4 -0.0094,-0.002 -0.0041,-0.004 z m -5.138004,-0.0269 c 0.0065,-0.002 0.01705,-0.002 0.02352,0 0.0065,0.002 0.0012,0.003 -0.01176,0.003 -0.01294,0 -0.01823,-0.001 -0.01176,-0.003 z m 0.483853,-1.8e-4 c 0.01017,-0.002 0.0268,-0.002 0.03696,0 0.01017,0.002 0.0018,0.003 -0.01848,0.003 -0.02033,0 -0.02865,-0.001 -0.01848,-0.003 z m 1.741571,-0.0103 -0.0128,-0.0151 0.01512,0.0128 c 0.0083,0.007 0.01512,0.0139 0.01512,0.0151 0,0.005 -0.0054,0.001 -0.01744,-0.0128 z m -2.342607,0.004 c 0.0049,-0.002 0.01065,-0.002 0.01288,5.3e-4 0.0022,0.002 -0.0017,0.004 -0.0088,0.004 -0.0078,-3.2e-4 -0.0094,-0.002 -0.0041,-0.004 z m 8.932389,-0.11891 c 0,-0.001 0.0053,-0.007 0.01176,-0.0118 0.01066,-0.008 0.0109,-0.008 0.0025,0.003 -0.0088,0.0112 -0.0143,0.0147 -0.0143,0.009 z m -11.667103,-0.0159 c -0.0084,-0.0107 -0.0081,-0.0109 0.0025,-0.003 0.0065,0.005 0.01176,0.0104 0.01176,0.0118 0,0.006 -0.0055,0.002 -0.0143,-0.009 z m 11.825028,-0.13608 c 0.0067,-0.007 0.01368,-0.0135 0.01552,-0.0135 0.0018,0 -0.0021,0.006 -0.0088,0.0135 -0.0067,0.007 -0.01368,0.0134 -0.01552,0.0134 -0.0018,0 0.0021,-0.006 0.0088,-0.0134 z m -7.093292,-0.0723 -0.06371,-0.0655 0.06552,0.0637 c 0.03604,0.035 0.06552,0.0645 0.06552,0.0655 0,0.005 -0.0082,-0.003 -0.06733,-0.0637 z m 7.231056,-0.0714 c 0,-10e-4 0.0053,-0.007 0.01176,-0.0118 0.01066,-0.008 0.0109,-0.008 0.0025,0.003 -0.0088,0.0112 -0.0143,0.0148 -0.0143,0.009 z m -11.065213,-0.42251 -0.01974,-0.0218 0.02184,0.0197 c 0.01201,0.0108 0.02184,0.0207 0.02184,0.0218 0,0.005 -0.0055,6.2e-4 -0.02394,-0.0197 z m 3.226016,-0.10752 -0.08727,-0.0891 0.08904,0.0873 c 0.04897,0.048 0.08904,0.0881 0.08904,0.089 0,0.005 -0.0098,-0.005 -0.09082,-0.0873 z m 6.814368,-0.0454 c 0.0067,-0.007 0.01368,-0.0134 0.01552,-0.0134 0.0018,0 -0.0021,0.006 -0.0088,0.0134 -0.0067,0.007 -0.01368,0.0134 -0.01552,0.0134 -0.0018,0 0.0021,-0.006 0.0088,-0.0134 z m -5.36943,-0.10081 c -0.05535,-0.0554 -0.09912,-0.1008 -0.09727,-0.1008 0.0018,0 0.04865,0.0454 0.103995,0.1008 0.05535,0.0554 0.09912,0.10081 0.09727,0.10081 -0.0018,0 -0.04865,-0.0454 -0.103995,-0.10081 z m 5.560955,-0.0907 c 0.0087,-0.009 0.0173,-0.0168 0.01914,-0.0168 0.0018,0 -0.0037,0.008 -0.01242,0.0168 -0.0087,0.009 -0.0173,0.0168 -0.01914,0.0168 -0.0018,0 0.0037,-0.008 0.01242,-0.0168 z m -7.735037,-0.48553 -0.0839,-0.0857 0.08568,0.0839 c 0.04712,0.0461 0.08568,0.0847 0.08568,0.0857 0,0.005 -0.0095,-0.004 -0.08746,-0.0839 z m -0.584704,-0.57794 -0.05697,-0.0588 0.0588,0.057 c 0.05461,0.0529 0.06186,0.0606 0.05697,0.0606 -0.001,0 -0.02747,-0.0265 -0.0588,-0.0588 z m 1.13584,-0.47713 -0.406551,-0.40826 0.408252,0.40656 c 0.379494,0.37791 0.411267,0.40995 0.40655,0.40995 -9.35e-4,0 -0.184649,-0.18372 -0.408251,-0.40825 z m -1.512879,0.10752 c -0.0084,-0.0107 -0.0081,-0.0109 0.0025,-0.003 0.0065,0.005 0.01176,0.0104 0.01176,0.0118 0,0.006 -0.0055,0.002 -0.0143,-0.009 z m -3.513271,-0.0459 c 3.23e-4,-0.008 0.0019,-0.009 0.0041,-0.004 0.0019,0.005 0.0017,0.0106 -5.3e-4,0.0129 -0.0022,0.002 -0.0038,-0.002 -0.0035,-0.009 z m 1.109362,-0.1036 c 0,-0.009 0.0015,-0.013 0.0034,-0.008 0.0019,0.005 0.0019,0.0122 0,0.0168 -0.0019,0.005 -0.0034,8.4e-4 -0.0034,-0.008 z m -1.114782,-0.0403 c 0,-0.0166 0.0013,-0.0234 0.0029,-0.0151 0.0016,0.008 0.0016,0.0219 0,0.0302 -0.0016,0.008 -0.0029,0.002 -0.0029,-0.0151 z m 0,-0.2352 c 0,-0.0166 0.0013,-0.0234 0.0029,-0.0151 0.0016,0.008 0.0016,0.0219 0,0.0302 -0.0016,0.008 -0.0029,0.002 -0.0029,-0.0151 z m 1.114782,-0.0739 c 0,-0.009 0.0015,-0.013 0.0034,-0.008 0.0019,0.005 0.0019,0.0122 0,0.0168 -0.0019,0.005 -0.0034,8.4e-4 -0.0034,-0.008 z m -1.108831,-0.0739 c 0,-0.009 0.0015,-0.013 0.0034,-0.008 0.0019,0.005 0.0019,0.0122 0,0.0168 -0.0019,0.005 -0.0034,8.4e-4 -0.0034,-0.008 z m 8.108526,0.002 c 0.0046,-0.002 0.01218,-0.002 0.0168,0 0.0046,0.002 8.4e-4,0.003 -0.0084,0.003 -0.0092,0 -0.01302,-0.002 -0.0084,-0.003 z m 0.05376,0 c 0.0046,-0.002 0.01218,-0.002 0.0168,0 0.0046,0.002 8.4e-4,0.003 -0.0084,0.003 -0.0092,0 -0.01302,-0.002 -0.0084,-0.003 z m -9.359011,-0.0935 c 3.22e-4,-0.008 0.0019,-0.009 0.0041,-0.004 0.0019,0.005 0.0017,0.0106 -5.31e-4,0.0129 -0.0022,0.002 -0.0038,-0.002 -0.0035,-0.009 z m 9.770623,-0.0734 c 0.01254,-0.0129 0.02431,-0.0235 0.02616,-0.0235 0.0018,0 -0.0069,0.0106 -0.01944,0.0235 -0.01254,0.0129 -0.02431,0.0235 -0.02616,0.0235 -0.0018,0 0.0069,-0.0106 0.01944,-0.0235 z m -9.763903,-0.0207 c 3.23e-4,-0.008 0.0019,-0.009 0.0041,-0.004 0.0019,0.005 0.0017,0.0106 -5.3e-4,0.0129 -0.0022,0.002 -0.0038,-0.002 -0.0035,-0.009 z m 0.0067,-0.0806 c 3.23e-4,-0.008 0.0019,-0.009 0.0041,-0.004 0.0019,0.005 0.0017,0.0106 -5.3e-4,0.0129 -0.0022,0.002 -0.0038,-0.002 -0.0035,-0.009 z m 8.62143,-0.23633 -0.204925,-0.20665 0.206646,0.20493 c 0.192044,0.19044 0.209671,0.20836 0.204925,0.20836 -9.47e-4,0 -0.09394,-0.093 -0.206646,-0.20664 z m 6.949246,0.18256 c 3.22e-4,-0.008 0.0019,-0.009 0.0041,-0.004 0.0019,0.005 0.0017,0.0106 -5.31e-4,0.0129 -0.0022,0.002 -0.0038,-0.002 -0.0035,-0.009 z m -1.135712,-0.0739 c 3.22e-4,-0.008 0.0019,-0.009 0.0041,-0.004 0.0019,0.005 0.0017,0.0106 -5.31e-4,0.0129 -0.0022,0.002 -0.0038,-0.002 -0.0035,-0.009 z m 1.143211,-0.0465 c 1.35e-4,-0.0111 0.0016,-0.0148 0.0033,-0.008 0.0017,0.007 0.0016,0.0156 -2.49e-4,0.0202 -0.0018,0.005 -0.0032,-8e-4 -0.0031,-0.0119 z m -1.13596,-0.0437 c 0,-0.009 0.0015,-0.013 0.0034,-0.008 0.0019,0.005 0.0019,0.0122 0,0.0168 -0.0019,0.005 -0.0034,8.4e-4 -0.0034,-0.008 z m -4.523218,-0.0846 c 3.23e-4,-0.008 0.0019,-0.009 0.0041,-0.004 0.0019,0.005 0.0017,0.0106 -5.31e-4,0.0129 -0.0022,0.002 -0.0038,-0.002 -0.0035,-0.009 z m 4.531582,-0.15065 c 0,-0.0573 10e-4,-0.0807 0.0023,-0.0521 0.0013,0.0286 0.0013,0.0755 0,0.10416 -0.0013,0.0286 -0.0023,0.005 -0.0023,-0.0521 z m 1.127596,-0.17136 c 1.35e-4,-0.0111 0.0016,-0.0148 0.0033,-0.008 0.0017,0.007 0.0016,0.0156 -2.49e-4,0.0202 -0.0018,0.005 -0.0032,-8e-4 -0.0031,-0.0119 z m -5.848067,-0.0756 -0.04349,-0.0454 0.04536,0.0435 c 0.02495,0.0239 0.04536,0.0443 0.04536,0.0454 0,0.005 -0.0068,-0.001 -0.04724,-0.0435 z m 4.712107,0.0118 c 0,-0.009 0.0015,-0.013 0.0034,-0.008 0.0019,0.005 0.0019,0.0122 0,0.0168 -0.0019,0.005 -0.0034,8.4e-4 -0.0034,-0.008 z m 1.128461,-0.051 c 3.22e-4,-0.008 0.0019,-0.009 0.0041,-0.004 0.0019,0.005 0.0017,0.0106 -5.31e-4,0.0129 -0.0022,0.002 -0.0038,-0.002 -0.0035,-0.009 z m -0.0067,-0.0874 c 3.23e-4,-0.008 0.0019,-0.009 0.0041,-0.004 0.0019,0.005 0.0017,0.0106 -5.31e-4,0.0129 -0.0022,0.002 -0.0038,-0.002 -0.0035,-0.009 z m -6.146394,-0.19264 -0.03335,-0.0353 0.03528,0.0333 c 0.0194,0.0183 0.03528,0.0342 0.03528,0.0353 0,0.005 -0.0062,-5.7e-4 -0.03721,-0.0333 z m -1.767284,-0.18817 -0.06708,-0.0689 0.06888,0.0671 c 0.06398,0.0623 0.07194,0.0707 0.06707,0.0707 -9.93e-4,0 -0.03199,-0.031 -0.06888,-0.0689 z m 1.511916,-0.0739 -0.03335,-0.0353 0.03528,0.0333 c 0.01941,0.0183 0.03528,0.0342 0.03528,0.0353 0,0.005 -0.0062,-5.7e-4 -0.03721,-0.0333 z m -6.125198,-0.14198 c 0,-0.001 0.0053,-0.007 0.01176,-0.0118 0.01066,-0.008 0.0109,-0.008 0.0025,0.003 -0.0088,0.0112 -0.0143,0.0148 -0.0143,0.009 z m 4.257099,-0.14699 -0.06034,-0.0622 0.06216,0.0603 c 0.05773,0.056 0.06522,0.064 0.06034,0.064 -10e-4,0 -0.02897,-0.028 -0.06216,-0.0622 z m 1.528862,-0.0571 -0.07044,-0.0722 0.07224,0.0704 c 0.03973,0.0387 0.07224,0.0713 0.07224,0.0722 0,0.005 -0.0086,-0.003 -0.07404,-0.0704 z m -0.342758,-0.34273 -0.05697,-0.0588 0.0588,0.057 c 0.03234,0.0313 0.0588,0.0578 0.0588,0.0588 0,0.005 -0.0077,-0.002 -0.06063,-0.057 z m -0.245561,-0.23857 -0.01974,-0.0218 0.02184,0.0197 c 0.02036,0.0184 0.02493,0.0239 0.01974,0.0239 -0.0012,0 -0.01099,-0.01 -0.02184,-0.0218 z m -5.953663,-0.0521 c 0.0067,-0.007 0.01367,-0.0134 0.01552,-0.0134 0.0018,0 -0.0021,0.006 -0.0088,0.0134 -0.0067,0.007 -0.01368,0.0134 -0.01552,0.0134 -0.0018,0 0.0021,-0.006 0.0088,-0.0134 z m 5.819044,-0.0756 -0.0128,-0.0151 0.01512,0.0128 c 0.01421,0.012 0.01818,0.0174 0.0128,0.0174 -0.0013,0 -0.0081,-0.007 -0.01512,-0.0151 z m -3.088548,-0.0634 c 0.0049,-0.002 0.01065,-0.002 0.01288,5.3e-4 0.0022,0.002 -0.0017,0.004 -0.0088,0.004 -0.0078,-3.3e-4 -0.0094,-0.002 -0.0041,-0.004 z m 0.443532,0 c 0.0049,-0.002 0.01065,-0.002 0.01288,5.3e-4 0.0022,0.002 -0.0017,0.004 -0.0088,0.004 -0.0078,-3.3e-4 -0.0094,-0.002 -0.0041,-0.004 z m -0.333069,-0.007 c 0.0065,-0.002 0.01705,-0.002 0.02352,0 0.0065,0.002 0.0012,0.003 -0.01176,0.003 -0.01294,0 -0.01823,-10e-4 -0.01176,-0.003 z m 0.208326,0 c 0.0065,-0.002 0.01705,-0.002 0.02352,0 0.0065,0.002 0.0012,0.003 -0.01176,0.003 -0.01294,0 -0.01823,-10e-4 -0.01176,-0.003 z m -2.881281,-0.0222 c 0.0067,-0.007 0.01368,-0.0134 0.01552,-0.0134 0.0018,0 -0.0021,0.006 -0.0088,0.0134 -0.0067,0.007 -0.01368,0.0134 -0.01552,0.0134 -0.0018,0 0.0021,-0.006 0.0088,-0.0134 z m 10.97657,-0.56954 c -0.0084,-0.0107 -0.0081,-0.0109 0.0025,-0.003 0.0065,0.005 0.01176,0.0104 0.01176,0.0118 0,0.006 -0.0055,0.002 -0.0143,-0.009 z m -12.018199,-0.089 c 0.0067,-0.007 0.01368,-0.0134 0.01552,-0.0134 0.0018,0 -0.0021,0.006 -0.0088,0.0134 -0.0067,0.007 -0.01368,0.0134 -0.01552,0.0134 -0.0018,0 0.0021,-0.006 0.0088,-0.0134 z m 11.877799,-0.0588 -0.06371,-0.0655 0.06552,0.0637 c 0.06086,0.0592 0.06858,0.0673 0.06371,0.0673 -9.96e-4,0 -0.03048,-0.0295 -0.06552,-0.0655 z m -11.682913,-0.13609 c 0.0067,-0.007 0.01368,-0.0134 0.01552,-0.0134 0.0018,0 -0.0021,0.006 -0.0088,0.0134 -0.0067,0.007 -0.01368,0.0134 -0.01552,0.0134 -0.0018,0 0.0021,-0.006 0.0088,-0.0134 z m 0.084,-0.0765 c 0,-0.001 0.0053,-0.007 0.01176,-0.0118 0.01066,-0.008 0.0109,-0.008 0.0025,0.003 -0.0088,0.0112 -0.0143,0.0147 -0.0143,0.009 z m 3.331953,-0.17005 c 0.0049,-0.002 0.01065,-0.002 0.01288,5.3e-4 0.0022,0.002 -0.0017,0.004 -0.0088,0.004 -0.0078,-3.3e-4 -0.0094,-0.002 -0.0041,-0.004 z m 0.577936,0 c 0.0049,-0.002 0.01065,-0.002 0.01288,5.3e-4 0.0022,0.002 -0.0017,0.004 -0.0088,0.004 -0.0078,-3.3e-4 -0.0094,-0.002 -0.0041,-0.004 z m -0.470833,-0.007 c 0.0046,-0.002 0.01218,-0.002 0.0168,0 0.0046,0.002 8.4e-4,0.003 -0.0084,0.003 -0.0092,0 -0.01302,-0.002 -0.0084,-0.003 z m 0.359658,-2.1e-4 c 0.0065,-0.002 0.01561,-0.002 0.02016,2.5e-4 0.0045,0.002 -8e-4,0.003 -0.01189,0.003 -0.01109,-1.4e-4 -0.01481,-0.002 -0.0083,-0.003 z m 8.854542,-0.15495 c -0.0084,-0.0107 -0.0081,-0.0109 0.0025,-0.003 0.0065,0.005 0.01176,0.0104 0.01176,0.0118 0,0.006 -0.0055,0.002 -0.0143,-0.009 z m -0.07034,-0.0773 -0.0128,-0.0151 0.01512,0.0128 c 0.01421,0.012 0.01818,0.0174 0.0128,0.0174 -0.0013,0 -0.0081,-0.007 -0.01512,-0.0151 z m -0.157286,-0.16296 c -0.01632,-0.0166 -0.02817,-0.0303 -0.02632,-0.0303 0.0018,0 0.01672,0.0136 0.03304,0.0303 0.01632,0.0166 0.02817,0.0302 0.02632,0.0302 -0.0018,0 -0.01672,-0.0136 -0.03304,-0.0302 z m -0.162142,-0.15625 c -0.0084,-0.0107 -0.0081,-0.0109 0.0025,-0.003 0.0065,0.005 0.01176,0.0104 0.01176,0.0118 0,0.006 -0.0055,0.002 -0.0143,-0.009 z m -3.723387,-0.16083 c 0.0049,-0.002 0.01065,-0.002 0.01288,5.3e-4 0.0022,0.002 -0.0017,0.004 -0.0088,0.004 -0.0078,-3.3e-4 -0.0094,-0.002 -0.0041,-0.004 z m 0.618257,0 c 0.0049,-0.002 0.01065,-0.002 0.01288,5.3e-4 0.0022,0.002 -0.0017,0.004 -0.0088,0.004 -0.0078,-3.3e-4 -0.0094,-0.002 -0.0041,-0.004 z m -0.524595,-0.007 c 0.0046,-0.002 0.01218,-0.002 0.0168,0 0.0046,0.002 8.4e-4,0.003 -0.0084,0.003 -0.0092,0 -0.01302,-0.002 -0.0084,-0.003 z m 0.423372,0 c 0.0046,-0.002 0.01218,-0.002 0.0168,0 0.0046,0.002 8.4e-4,0.003 -0.0084,0.003 -0.0092,0 -0.01302,-0.002 -0.0084,-0.003 z m 4.308812,-0.42397 -0.01629,-0.0185 0.01848,0.0163 c 0.01016,0.009 0.01848,0.0173 0.01848,0.0185 0,0.005 -0.0054,9.8e-4 -0.02067,-0.0163 z m -9.281331,-0.0332 c 0.0049,-0.002 0.01065,-0.002 0.01288,5.3e-4 0.0022,0.002 -0.0017,0.004 -0.0088,0.004 -0.0078,-3.2e-4 -0.0094,-0.002 -0.0041,-0.004 z m -0.893785,-0.0134 c 0.0049,-0.002 0.01065,-0.002 0.01288,5.3e-4 0.0022,0.002 -0.0017,0.004 -0.0088,0.004 -0.0078,-3.2e-4 -0.0094,-0.002 -0.0041,-0.004 z m 0.725781,0 c 0.0049,-0.002 0.01065,-0.002 0.01288,5.3e-4 0.0022,0.002 -0.0017,0.004 -0.0088,0.004 -0.0078,-3.2e-4 -0.0094,-0.002 -0.0041,-0.004 z m -0.611958,-0.007 c 0.0046,-0.002 0.01218,-0.002 0.0168,0 0.0046,0.002 8.4e-4,0.003 -0.0084,0.003 -0.0092,0 -0.01302,-0.002 -0.0084,-0.003 z m 0.487342,-2e-4 c 0.0065,-0.002 0.01561,-0.002 0.02016,2.4e-4 0.0045,0.002 -7.99e-4,0.003 -0.01189,0.003 -0.01109,-1.3e-4 -0.01481,-0.002 -0.0083,-0.003 z m 0.696811,-0.0306 c 0.02785,-0.0297 0.03388,-0.035 0.03388,-0.03 0,0.001 -0.01436,0.0154 -0.03192,0.0319 l -0.03192,0.03 z m 8.688975,-0.10416 -0.01629,-0.0185 0.01848,0.0163 c 0.01016,0.009 0.01848,0.0173 0.01848,0.0185 0,0.005 -0.0054,9.8e-4 -0.02067,-0.0163 z m -8.52741,-0.0513 c 0,-0.001 0.0053,-0.007 0.01176,-0.0118 0.01066,-0.008 0.0109,-0.008 0.0025,0.003 -0.0088,0.0112 -0.0143,0.0148 -0.0143,0.009 z m 0.08064,-0.0739 c 0,-10e-4 0.0053,-0.007 0.01176,-0.0118 0.01066,-0.008 0.0109,-0.008 0.0025,0.003 -0.0088,0.0112 -0.0143,0.0148 -0.0143,0.009 z m 3.654523,-0.39183 c 0.0049,-0.002 0.01065,-0.002 0.01288,5.3e-4 0.0022,0.002 -0.0017,0.004 -0.0088,0.004 -0.0078,-3.2e-4 -0.0094,-0.002 -0.0041,-0.004 z m 0.09408,-0.007 c 0.0049,-0.002 0.01065,-0.002 0.01288,5.3e-4 0.0022,0.002 -0.0017,0.004 -0.0088,0.004 -0.0078,-3.2e-4 -0.0094,-0.002 -0.0041,-0.004 z m 0.779542,0 c 0.0049,-0.002 0.01065,-0.002 0.01288,5.3e-4 0.0022,0.002 -0.0017,0.004 -0.0088,0.004 -0.0078,-3.2e-4 -0.0094,-0.002 -0.0041,-0.004 z m -0.662231,-0.007 c 0.0065,-0.002 0.01561,-0.002 0.02016,2.5e-4 0.0045,0.002 -8e-4,0.003 -0.01189,0.003 -0.01109,-1.3e-4 -0.01481,-0.002 -0.0083,-0.003 z m 0.537615,0 c 0.0065,-0.002 0.01561,-0.002 0.02016,2.5e-4 0.0045,0.002 -8e-4,0.003 -0.01189,0.003 -0.01109,-1.3e-4 -0.01481,-0.002 -0.0083,-0.003 z m -0.292456,-0.007 c 0.0194,-10e-4 0.05116,-10e-4 0.07056,0 0.01941,0.001 0.0035,0.002 -0.03528,0.002 -0.03881,0 -0.05469,-0.001 -0.03528,-0.002 z"
         id="path1721" />
      <path
         style="fill:#ffffff;fill-opacity:1;stroke-width:0.00672019"
         d="m 76.467913,116.86542 -0.0128,-0.0151 0.01512,0.0128 c 0.01421,0.012 0.01818,0.0174 0.0128,0.0174 -0.0013,0 -0.0081,-0.007 -0.01512,-0.0151 z m -0.117474,-0.11088 -0.01629,-0.0185 0.01848,0.0163 c 0.01016,0.009 0.01848,0.0173 0.01848,0.0185 0,0.005 -0.0054,9.8e-4 -0.02067,-0.0163 z m -5.120783,-0.0538 -0.01629,-0.0185 0.01848,0.0163 c 0.01727,0.0152 0.02156,0.0207 0.01629,0.0207 -0.0012,0 -0.0095,-0.008 -0.01848,-0.0185 z m 5.00654,-0.0538 -0.01629,-0.0185 0.01848,0.0163 c 0.01016,0.009 0.01848,0.0173 0.01848,0.0185 0,0.005 -0.0054,9.8e-4 -0.02067,-0.0163 z m -0.117733,-0.11089 -0.0128,-0.0151 0.01512,0.0128 c 0.01421,0.012 0.01818,0.0174 0.0128,0.0174 -0.0013,0 -0.0081,-0.007 -0.01512,-0.0151 z m -5.076972,-0.0235 -0.01629,-0.0185 0.01848,0.0163 c 0.01727,0.0152 0.02156,0.0207 0.01629,0.0207 -0.0012,0 -0.0095,-0.008 -0.01848,-0.0185 z m 13.326641,0.016 c 0,-10e-4 0.0053,-0.007 0.01176,-0.0118 0.01066,-0.008 0.0109,-0.008 0.0025,0.003 -0.0088,0.0112 -0.0143,0.0148 -0.0143,0.009 z m -8.363912,-0.0999 -0.0128,-0.0151 0.01512,0.0128 c 0.0083,0.007 0.01512,0.0139 0.01512,0.0151 0,0.005 -0.0054,10e-4 -0.01744,-0.0128 z m 8.478156,-0.008 c 0.01254,-0.0129 0.02431,-0.0235 0.02616,-0.0235 0.0018,0 -0.0069,0.0106 -0.01944,0.0235 -0.01254,0.0129 -0.02431,0.0235 -0.02616,0.0235 -0.0018,0 0.0069,-0.0106 0.01944,-0.0235 z m -8.60235,-0.1092 -0.01629,-0.0185 0.01848,0.0163 c 0.01016,0.009 0.01848,0.0173 0.01848,0.0185 0,0.005 -0.0054,9.8e-4 -0.02067,-0.0163 z m 8.763634,-0.0521 c 0.01254,-0.0129 0.02431,-0.0235 0.02616,-0.0235 0.0018,0 -0.0069,0.0106 -0.01944,0.0235 -0.01254,0.0129 -0.02431,0.0235 -0.02616,0.0235 -0.0018,0 0.0069,-0.0106 0.01944,-0.0235 z m -8.898037,-0.0756 -0.01629,-0.0185 0.01848,0.0163 c 0.01017,0.009 0.01848,0.0173 0.01848,0.0185 0,0.005 -0.0054,9.8e-4 -0.02067,-0.0163 z m 8.99884,-0.0311 c 0,-10e-4 0.0053,-0.007 0.01176,-0.0118 0.01066,-0.008 0.0109,-0.008 0.0025,0.003 -0.0088,0.0112 -0.0143,0.0148 -0.0143,0.009 z m -9.149959,-0.11339 -0.01974,-0.0218 0.02184,0.0197 c 0.02036,0.0184 0.02493,0.0239 0.01974,0.0239 -0.0012,0 -0.01098,-0.01 -0.02184,-0.0218 z m -3.471411,-0.12432 c -0.0084,-0.0107 -0.0081,-0.0109 0.0025,-0.003 0.01119,0.009 0.01475,0.0143 0.0092,0.0143 -0.0014,0 -0.0067,-0.005 -0.01176,-0.0118 z m 4.862274,-0.084 -0.0128,-0.0151 0.01512,0.0128 c 0.01421,0.012 0.01818,0.0174 0.0128,0.0174 -0.0013,0 -0.0081,-0.007 -0.01512,-0.0151 z m 6.542742,-0.12182 c 0,-0.001 0.0053,-0.007 0.01176,-0.0118 0.01066,-0.008 0.0109,-0.008 0.0025,0.003 -0.0088,0.0112 -0.0143,0.0147 -0.0143,0.009 z m -11.667104,-0.0563 c -0.0084,-0.0107 -0.0081,-0.0109 0.0025,-0.003 0.01119,0.009 0.01475,0.0143 0.0092,0.0143 -0.0014,0 -0.0067,-0.005 -0.01176,-0.0118 z m 4.872845,-0.0672 -0.05697,-0.0588 0.0588,0.057 c 0.05461,0.0529 0.06186,0.0606 0.05697,0.0606 -10e-4,0 -0.02747,-0.0265 -0.0588,-0.0588 z m 6.925303,-0.002 c 0.0182,-0.0185 0.03461,-0.0336 0.03645,-0.0336 0.0018,0 -0.01153,0.0151 -0.02973,0.0336 -0.0182,0.0185 -0.03461,0.0336 -0.03646,0.0336 -0.0018,0 0.01153,-0.0151 0.02974,-0.0336 z m 0.09408,-0.0941 c 0.0182,-0.0185 0.03461,-0.0336 0.03646,-0.0336 0.0018,0 -0.01153,0.0151 -0.02974,0.0336 -0.0182,0.0185 -0.03461,0.0336 -0.03646,0.0336 -0.0018,0 0.01153,-0.0151 0.02974,-0.0336 z m 0.110883,-0.11678 c 0,-10e-4 0.0053,-0.007 0.01176,-0.0118 0.01066,-0.008 0.0109,-0.008 0.0025,0.003 -0.0088,0.0112 -0.0143,0.0147 -0.0143,0.009 z m -7.687996,-0.33851 -0.0839,-0.0857 0.08568,0.0839 c 0.04713,0.0461 0.08568,0.0847 0.08568,0.0857 0,0.005 -0.0095,-0.004 -0.08746,-0.0839 z m -3.300368,0.0269 c -0.0084,-0.0107 -0.0081,-0.0109 0.0025,-0.003 0.0065,0.005 0.01176,0.0104 0.01176,0.0118 0,0.006 -0.0055,0.002 -0.0143,-0.009 z m 4.744452,-0.18144 c -0.0084,-0.0107 -0.0081,-0.0109 0.0025,-0.003 0.01119,0.009 0.01475,0.0143 0.0092,0.0143 -0.0014,0 -0.0067,-0.005 -0.01176,-0.0118 z m 5.121641,0.009 c 0,-10e-4 0.0053,-0.007 0.01176,-0.0118 0.01066,-0.008 0.0109,-0.008 0.0025,0.003 -0.0088,0.0112 -0.0143,0.0148 -0.0143,0.009 z m -10.054259,-0.0159 c -0.0084,-0.0107 -0.0081,-0.0109 0.0025,-0.003 0.01119,0.009 0.01475,0.0143 0.0092,0.0143 -0.0014,0 -0.0067,-0.005 -0.01176,-0.0118 z m 10.168502,-0.0924 c 0.01254,-0.0129 0.02431,-0.0235 0.02616,-0.0235 0.0018,0 -0.0069,0.0106 -0.01944,0.0235 -0.01254,0.0129 -0.02431,0.0235 -0.02616,0.0235 -0.0018,0 0.0069,-0.0106 0.01944,-0.0235 z m 0.114243,-0.11424 c 0.01254,-0.0129 0.02431,-0.0235 0.02616,-0.0235 0.0018,0 -0.0069,0.0106 -0.01944,0.0235 -0.01254,0.0129 -0.02431,0.0235 -0.02616,0.0235 -0.0018,0 0.0069,-0.0106 0.01944,-0.0235 z m 0.09408,-0.1 c 0,-10e-4 0.0053,-0.007 0.01176,-0.0118 0.01066,-0.008 0.0109,-0.008 0.0025,0.003 -0.0088,0.0112 -0.0143,0.0147 -0.0143,0.009 z m -7.614066,-0.25115 -0.09063,-0.0924 0.0924,0.0906 c 0.05082,0.0498 0.0924,0.0914 0.0924,0.0924 0,0.005 -0.01,-0.005 -0.09418,-0.0906 z m 1.075294,-0.53089 -0.292299,-0.29401 0.294008,0.2923 c 0.161705,0.16076 0.294008,0.29307 0.294008,0.29401 0,0.005 -0.02403,-0.019 -0.295717,-0.2923 z m -1.710385,-0.0975 -0.06708,-0.0689 0.06888,0.0671 c 0.03789,0.0369 0.06888,0.0679 0.06888,0.0689 0,0.005 -0.0084,-0.003 -0.07069,-0.0671 z m -0.443586,-0.43681 -0.04686,-0.0487 0.04872,0.0469 c 0.04525,0.0435 0.05179,0.0506 0.04686,0.0506 -0.001,0 -0.02295,-0.0219 -0.04872,-0.0487 z m -0.07796,-0.0773 c -0.0084,-0.0107 -0.0081,-0.0109 0.0025,-0.003 0.01119,0.009 0.01475,0.0143 0.0092,0.0143 -0.0014,0 -0.0067,-0.005 -0.01176,-0.0118 z m 4.812282,-1.76741 -0.03673,-0.0386 0.03864,0.0367 c 0.02125,0.0202 0.03864,0.0376 0.03864,0.0386 0,0.005 -0.0064,-8.3e-4 -0.04055,-0.0367 z m -0.25875,-0.26545 -0.03335,-0.0353 0.03528,0.0333 c 0.01941,0.0183 0.03528,0.0342 0.03528,0.0353 0,0.005 -0.0062,-5.6e-4 -0.03721,-0.0333 z m -1.693415,-0.10752 -0.04686,-0.0487 0.04872,0.0469 c 0.04525,0.0435 0.05179,0.0506 0.04686,0.0506 -0.001,0 -0.02295,-0.0219 -0.04872,-0.0487 z M 72.675,110.9103 c 0,-0.001 0.0053,-0.007 0.01176,-0.0118 0.01066,-0.008 0.0109,-0.008 0.0025,0.003 -0.0088,0.0112 -0.0143,0.0148 -0.0143,0.009 z m 5.879971,-0.0697 -0.04349,-0.0454 0.04536,0.0435 c 0.02495,0.0239 0.04536,0.0443 0.04536,0.0454 0,0.005 -0.0068,-0.001 -0.04724,-0.0435 z m -5.715326,-0.0958 c 0.0067,-0.007 0.01367,-0.0134 0.01552,-0.0134 0.0018,0 -0.0021,0.006 -0.0088,0.0134 -0.0067,0.007 -0.01367,0.0134 -0.01552,0.0134 -0.0018,0 0.0021,-0.006 0.0088,-0.0134 z m 5.167572,-0.45193 -0.03335,-0.0353 0.03528,0.0333 c 0.0194,0.0183 0.03528,0.0342 0.03528,0.0353 0,0.005 -0.0062,-5.7e-4 -0.03721,-0.0333 z m -6.205841,-0.0949 c 0,-0.001 0.0053,-0.007 0.01176,-0.0118 0.01066,-0.008 0.0109,-0.008 0.0025,0.003 -0.0088,0.0112 -0.0143,0.0148 -0.0143,0.009 z m 0.07056,-0.0781 c 0.0067,-0.007 0.01367,-0.0134 0.01552,-0.0134 0.0018,0 -0.0021,0.006 -0.0088,0.0134 -0.0067,0.007 -0.01368,0.0134 -0.01552,0.0134 -0.0018,0 0.0021,-0.006 0.0088,-0.0134 z m 5.940223,-0.0151 -0.01974,-0.0218 0.02184,0.0197 c 0.02036,0.0184 0.02493,0.0239 0.01974,0.0239 -0.0012,0 -0.01099,-0.01 -0.02184,-0.0218 z m -0.121179,-0.11424 -0.0128,-0.0151 0.01512,0.0128 c 0.01421,0.012 0.01818,0.0174 0.0128,0.0174 -0.0013,0 -0.0081,-0.007 -0.01512,-0.0151 z m -0.09094,-0.084 c -0.0084,-0.0107 -0.0081,-0.0109 0.0025,-0.003 0.0065,0.005 0.01176,0.0104 0.01176,0.0118 0,0.006 -0.0055,0.002 -0.0143,-0.009 z m -5.516417,0.002 c 0,-0.001 0.0053,-0.007 0.01176,-0.0118 0.01066,-0.008 0.0109,-0.008 0.0025,0.003 -0.0088,0.0112 -0.0143,0.0147 -0.0143,0.009 z m -1.128992,-0.5645 c 0,-0.001 0.0053,-0.007 0.01176,-0.0118 0.01066,-0.008 0.0109,-0.008 0.0025,0.003 -0.0088,0.0112 -0.0143,0.0148 -0.0143,0.009 z m 12.0686,-0.009 c -0.0084,-0.0107 -0.0081,-0.0109 0.0025,-0.003 0.0065,0.005 0.01176,0.0104 0.01176,0.0118 0,0.006 -0.0055,0.002 -0.0143,-0.009 z m -11.957717,-0.1092 c 0.01444,-0.0148 0.02776,-0.0269 0.02961,-0.0269 0.0018,0 -0.0085,0.0121 -0.02289,0.0269 -0.01444,0.0148 -0.02776,0.0269 -0.02961,0.0269 -0.0018,0 0.0085,-0.0121 0.02289,-0.0269 z m 0.114243,-0.11425 c 0.01444,-0.0148 0.02776,-0.0269 0.02961,-0.0269 0.0018,0 -0.0085,0.0121 -0.02289,0.0269 -0.01444,0.0148 -0.02776,0.0269 -0.02961,0.0269 -0.0018,0 0.0085,-0.0121 0.02289,-0.0269 z m 11.594827,-0.0252 c -0.0084,-0.0106 -0.0081,-0.0109 0.0025,-0.003 0.01119,0.009 0.01475,0.0143 0.0092,0.0143 -0.0014,0 -0.0067,-0.005 -0.01176,-0.0118 z m 1.135712,-0.47713 c -0.0084,-0.0107 -0.0081,-0.0109 0.0025,-0.003 0.01119,0.009 0.01475,0.0143 0.0092,0.0143 -0.0014,0 -0.0067,-0.005 -0.01176,-0.0118 z m -0.120106,-0.126 c -0.01632,-0.0166 -0.02817,-0.0302 -0.02632,-0.0302 0.0018,0 0.01672,0.0136 0.03304,0.0302 0.01632,0.0166 0.02817,0.0302 0.02632,0.0302 -0.0018,0 -0.01671,-0.0136 -0.03304,-0.0302 z m -0.11792,-0.11929 -0.02656,-0.0286 0.02856,0.0266 c 0.02656,0.0247 0.03165,0.0305 0.02656,0.0305 -0.0011,0 -0.01395,-0.0129 -0.02856,-0.0286 z m -0.124864,-0.1176 c -0.0084,-0.0107 -0.0081,-0.0109 0.0025,-0.003 0.01119,0.009 0.01475,0.0143 0.0092,0.0143 -0.0014,0 -0.0067,-0.005 -0.01176,-0.0118 z m 1.202914,-0.48385 c -0.0084,-0.0107 -0.0081,-0.0109 0.0025,-0.003 0.01119,0.009 0.01475,0.0143 0.0092,0.0143 -0.0014,0 -0.0067,-0.005 -0.01176,-0.0118 z m -0.173977,-0.18145 -0.07717,-0.079 0.07896,0.0772 c 0.07335,0.0717 0.08201,0.0807 0.07717,0.0807 -9.85e-4,0 -0.03652,-0.0355 -0.07896,-0.079 z m -8.638692,-0.12936 c 0.0067,-0.007 0.01367,-0.0134 0.01552,-0.0134 0.0018,0 -0.0021,0.006 -0.0088,0.0134 -0.0067,0.007 -0.01368,0.0134 -0.01552,0.0134 -0.0018,0 0.0021,-0.006 0.0088,-0.0134 z m 8.460078,-0.042 -0.0128,-0.0151 0.01512,0.0128 c 0.01421,0.012 0.01818,0.0174 0.0128,0.0174 -0.0013,0 -0.0081,-0.007 -0.01512,-0.0151 z m -8.315594,-0.0882 c 0,-0.001 0.0053,-0.007 0.01176,-0.0118 0.01066,-0.008 0.0109,-0.008 0.0025,0.003 -0.0088,0.0112 -0.0143,0.0148 -0.0143,0.009 z"
         id="path1719" />
      <path
         style="fill:#ffffff;fill-opacity:1;stroke-width:0.00672019"
         d="m 74.563378,118.14326 c -0.01294,-0.003 -0.07644,-0.0106 -0.141124,-0.0163 -0.688334,-0.0603 -1.247981,-0.21344 -1.851412,-0.5066 -0.939624,-0.45648 -1.681013,-1.1313 -2.215559,-2.01663 -0.32139,-0.5323 -0.537782,-1.08226 -0.653112,-1.65989 -0.03115,-0.156 -0.04597,-0.25651 -0.08171,-0.55395 l -0.02993,-0.24911 1.12e-4,-0.25873 c 6.2e-5,-0.1429 0.003,-0.27076 0.0066,-0.28561 0.0036,-0.0148 0.01109,-0.0828 0.01672,-0.1512 0.04434,-0.53892 0.152856,-1.00363 0.347573,-1.48852 0.43953,-1.09454 1.16327,-1.95729 2.144205,-2.55603 0.687508,-0.41965 1.374159,-0.65814 2.1485,-0.74624 0.233038,-0.0265 0.320998,-0.031 0.611538,-0.0309 0.297434,1e-4 0.368059,0.004 0.647603,0.0344 0.134207,0.0147 0.164812,0.0162 0.187472,0.009 0.02108,-0.006 0.05477,-0.035 0.152099,-0.12955 0.475763,-0.46211 0.973602,-0.81795 1.553057,-1.1101 0.413875,-0.20867 0.807004,-0.35697 1.239874,-0.46774 0.345162,-0.0883 0.583692,-0.12767 1.078406,-0.17789 0.216521,-0.022 0.246923,-0.0235 0.465169,-0.0235 0.17171,0 0.251791,0.003 0.302593,0.01 0.038,0.006 0.170393,0.0207 0.294212,0.0337 0.272989,0.0287 0.402505,0.0452 0.530895,0.0678 0.962535,0.16889 1.855301,0.56757 2.667915,1.1914 0.215539,0.16547 0.365155,0.29809 0.59188,0.52464 0.182197,0.18206 0.26351,0.27042 0.389904,0.42373 0.619229,0.75109 1.066678,1.66172 1.2689,2.58241 0.05818,0.26489 0.08815,0.46241 0.12812,0.84443 0.02685,0.25656 0.02702,0.26001 0.02673,0.52417 -1.61e-4,0.14625 -0.0031,0.27952 -0.0064,0.29615 -0.0034,0.0166 -0.02002,0.15574 -0.03696,0.30913 -0.03664,0.33161 -0.05466,0.45724 -0.0942,0.6566 -0.131147,0.66118 -0.373726,1.28713 -0.731293,1.88699 -0.531502,0.89167 -1.262006,1.62662 -2.136545,2.14955 -0.586117,0.35046 -1.180551,0.59029 -1.815993,0.73268 -0.262149,0.0587 -0.424261,0.0839 -0.825236,0.12832 l -0.274181,0.0303 -2.941429,-6.9e-4 c -1.708018,-4e-4 -2.951292,-0.003 -2.96495,-0.007 z m 5.9038,-1.15534 c 0.395899,-0.0253 0.74369,-0.0865 1.125517,-0.19798 0.316317,-0.0924 0.582971,-0.1986 0.883704,-0.3521 0.585838,-0.29901 1.095355,-0.70795 1.54501,-1.24 0.70567,-0.83499 1.102465,-1.83108 1.173824,-2.94668 0.01049,-0.16395 0.0046,-0.58352 -0.01031,-0.73669 -0.09236,-0.9478 -0.418307,-1.81028 -0.953643,-2.52343 -0.302913,-0.40353 -0.728323,-0.8213 -1.139981,-1.11952 -0.554302,-0.40155 -1.166739,-0.67385 -1.826519,-0.8121 -0.609431,-0.1277 -1.339861,-0.14275 -1.953587,-0.0403 -0.731931,0.12225 -1.495298,0.45496 -2.118904,0.92352 -0.14944,0.11228 -0.196534,0.1526 -0.192015,0.16437 0.0021,0.005 0.05995,0.039 0.12861,0.0747 0.264734,0.13744 0.52942,0.29771 0.762474,0.4617 0.121943,0.0858 0.123066,0.0864 0.154071,0.083 0.0239,-0.003 0.05467,-0.0175 0.131043,-0.0634 0.530011,-0.31858 1.055784,-0.49479 1.652175,-0.55372 0.117819,-0.0116 0.542345,-0.0115 0.661939,1.8e-4 0.970609,0.095 1.746201,0.44502 2.391194,1.07913 0.33376,0.32813 0.611555,0.7111 0.814545,1.12293 0.190977,0.38746 0.297291,0.74544 0.349976,1.17845 0.01763,0.14486 0.02484,0.51399 0.01317,0.67426 -0.05185,0.71242 -0.271811,1.38724 -0.630441,1.93411 -0.125567,0.19148 -0.254895,0.35424 -0.422754,0.53203 -0.913098,0.9671 -2.057767,1.36484 -3.399398,1.18117 -0.6144,-0.0841 -1.195768,-0.32035 -1.683008,-0.68391 -0.211329,-0.15768 -0.233673,-0.17929 -1.541796,-1.49085 -0.875835,-0.87813 -1.280233,-1.27912 -1.320378,-1.30925 -0.106086,-0.0796 -0.184961,-0.10917 -0.308399,-0.11553 -0.17707,-0.009 -0.323572,0.0459 -0.444277,0.16689 -0.07308,0.0732 -0.130432,0.17354 -0.159515,0.27895 -0.01701,0.0617 -0.02007,0.17231 -0.0065,0.2352 0.01472,0.0682 0.06649,0.17449 0.113415,0.23286 0.02019,0.0251 0.179916,0.18674 0.354951,0.35917 0.175034,0.17244 0.735568,0.72656 1.24563,1.23138 1.113399,1.10197 1.148423,1.13607 1.279474,1.24572 0.667629,0.55859 1.471787,0.88941 2.42671,0.9983 0.100241,0.0114 0.176566,0.0178 0.35617,0.0299 0.07912,0.005 0.452314,0.004 0.54781,-0.002 z m -3.922786,-0.011 c 0.01954,-0.002 0.03466,-0.006 0.0336,-0.009 -0.0011,-0.002 -0.133466,-0.12803 -0.294247,-0.27926 -0.300551,-0.28271 -0.430786,-0.40619 -0.707163,-0.67051 -0.158633,-0.15171 -0.195823,-0.18014 -0.257184,-0.19664 -0.01109,-0.003 -0.127515,-0.005 -0.258727,-0.004 -0.416629,0.003 -0.670861,-0.0212 -0.93548,-0.0875 -0.828245,-0.2076 -1.515253,-0.76542 -1.903577,-1.54564 -0.296426,-0.59557 -0.384417,-1.2469 -0.254925,-1.887 0.193589,-0.95694 0.868919,-1.75958 1.797399,-2.13623 0.45333,-0.1839 0.967535,-0.25269 1.43832,-0.19241 0.58315,0.0747 1.111733,0.2992 1.529661,0.64978 0.03617,0.0303 0.475534,0.46611 0.976356,0.96837 0.50421,0.50566 0.929059,0.92639 0.95198,0.94276 0.113984,0.0814 0.235898,0.1096 0.37497,0.0868 0.124894,-0.0205 0.229798,-0.0641 0.30872,-0.12841 0.118608,-0.0966 0.192712,-0.26143 0.193247,-0.42979 3.57e-4,-0.11323 -0.02455,-0.19719 -0.08614,-0.29035 -0.04931,-0.0746 -1.322003,-1.36742 -1.6655,-1.69184 -0.244619,-0.23104 -0.411051,-0.37303 -0.584656,-0.49879 -0.598607,-0.43365 -1.195104,-0.66796 -1.898663,-0.74582 -0.154431,-0.0171 -0.591336,-0.0171 -0.749091,-9e-5 -0.569285,0.0615 -1.090627,0.20857 -1.543806,0.43534 -0.190164,0.0952 -0.424245,0.23953 -0.595233,0.36712 -0.287304,0.21438 -0.587309,0.51407 -0.806259,0.80543 -0.643111,0.85578 -0.92465,1.95201 -0.773926,3.01344 0.113306,0.79792 0.451263,1.53953 0.974594,2.13864 0.07719,0.0884 0.271064,0.28289 0.363809,0.36504 0.693083,0.61388 1.573866,0.97137 2.506407,1.01729 0.126048,0.006 1.81597,0.009 1.865508,0.003 z"
         id="path1717" />
    </g>
  </g>
</svg>
